ISO-10303-21;
HEADER;
/* Generated by software containing ST-Developer
 * from STEP Tools, Inc. (www.steptools.com) 
 */
/* OPTION: using custom renumber hook */

FILE_DESCRIPTION(
/* description */ ('STEP AP242 Edition 2',
'CAx-IF Rec.Pracs.---Representation and Presentation of Product Manufa
cturing Information (PMI)---4.0---2014-10-13',
'CAx-IF Rec.Pracs.---3D Tessellated Geometry---0.4---2014-09-14','2;1',
'CAx-IF Rec.Pracs.---User Defined Attributes---1.5---2016-08-15'),
/* implementation_level */ '2;1');

FILE_NAME(
/* name */ 'Bottom',
/* time_stamp */ '2026-04-20T05:31:53Z',
/* author */ (''),
/* organization */ (''),
/* preprocessor_version */ 'ST-DEVELOPER v20',
/* originating_system */ 'ONSHAPE BY PTC INC, 1.213',
/* authorisation */ '  ');

FILE_SCHEMA (('AP242_MANAGED_MODEL_BASED_3D_ENGINEERING_MIM_LF { 1 0 10303 442 3 1 4 }'));
ENDSEC;

DATA;
#10=SHAPE_REPRESENTATION_RELATIONSHIP('','',#1309,#11);
#11=ADVANCED_BREP_SHAPE_REPRESENTATION('',(#1307),#2163);
#12=CYLINDRICAL_SURFACE('',#1331,0.00500000000000008);
#13=CYLINDRICAL_SURFACE('',#1334,0.0025);
#14=CYLINDRICAL_SURFACE('',#1337,0.005);
#15=CYLINDRICAL_SURFACE('',#1340,0.005);
#16=CYLINDRICAL_SURFACE('',#1343,0.0025);
#17=CYLINDRICAL_SURFACE('',#1346,0.00500000000000008);
#18=CYLINDRICAL_SURFACE('',#1349,0.005);
#19=CYLINDRICAL_SURFACE('',#1352,0.0025);
#20=CYLINDRICAL_SURFACE('',#1355,0.005);
#21=CYLINDRICAL_SURFACE('',#1360,0.00500000000000009);
#22=CYLINDRICAL_SURFACE('',#1363,0.0025);
#23=CYLINDRICAL_SURFACE('',#1366,0.001);
#24=CYLINDRICAL_SURFACE('',#1368,0.001);
#25=CYLINDRICAL_SURFACE('',#1370,0.001);
#26=CYLINDRICAL_SURFACE('',#1372,0.001);
#27=CYLINDRICAL_SURFACE('',#1374,0.001);
#28=CYLINDRICAL_SURFACE('',#1376,0.00499999999999994);
#29=CYLINDRICAL_SURFACE('',#1378,0.001);
#30=CYLINDRICAL_SURFACE('',#1387,0.0018);
#31=CYLINDRICAL_SURFACE('',#1390,0.0018);
#32=CYLINDRICAL_SURFACE('',#1393,0.0018);
#33=CYLINDRICAL_SURFACE('',#1396,0.0018);
#34=CYLINDRICAL_SURFACE('',#1399,0.0018);
#35=CYLINDRICAL_SURFACE('',#1402,0.0018);
#36=LINE('',#1807,#162);
#37=LINE('',#1810,#163);
#38=LINE('',#1812,#164);
#39=LINE('',#1814,#165);
#40=LINE('',#1816,#166);
#41=LINE('',#1820,#167);
#42=LINE('',#1824,#168);
#43=LINE('',#1828,#169);
#44=LINE('',#1830,#170);
#45=LINE('',#1832,#171);
#46=LINE('',#1834,#172);
#47=LINE('',#1836,#173);
#48=LINE('',#1838,#174);
#49=LINE('',#1840,#175);
#50=LINE('',#1842,#176);
#51=LINE('',#1844,#177);
#52=LINE('',#1848,#178);
#53=LINE('',#1852,#179);
#54=LINE('',#1856,#180);
#55=LINE('',#1858,#181);
#56=LINE('',#1860,#182);
#57=LINE('',#1862,#183);
#58=LINE('',#1864,#184);
#59=LINE('',#1866,#185);
#60=LINE('',#1868,#186);
#61=LINE('',#1872,#187);
#62=LINE('',#1876,#188);
#63=LINE('',#1880,#189);
#64=LINE('',#1882,#190);
#65=LINE('',#1884,#191);
#66=LINE('',#1886,#192);
#67=LINE('',#1888,#193);
#68=LINE('',#1890,#194);
#69=LINE('',#1892,#195);
#70=LINE('',#1894,#196);
#71=LINE('',#1896,#197);
#72=LINE('',#1900,#198);
#73=LINE('',#1904,#199);
#74=LINE('',#1908,#200);
#75=LINE('',#1910,#201);
#76=LINE('',#1912,#202);
#77=LINE('',#1913,#203);
#78=LINE('',#1915,#204);
#79=LINE('',#1917,#205);
#80=LINE('',#1918,#206);
#81=LINE('',#1920,#207);
#82=LINE('',#1922,#208);
#83=LINE('',#1926,#209);
#84=LINE('',#1928,#210);
#85=LINE('',#1930,#211);
#86=LINE('',#1934,#212);
#87=LINE('',#1936,#213);
#88=LINE('',#1938,#214);
#89=LINE('',#1942,#215);
#90=LINE('',#1944,#216);
#91=LINE('',#1946,#217);
#92=LINE('',#1948,#218);
#93=LINE('',#1949,#219);
#94=LINE('',#1951,#220);
#95=LINE('',#1955,#221);
#96=LINE('',#1957,#222);
#97=LINE('',#1959,#223);
#98=LINE('',#1963,#224);
#99=LINE('',#1965,#225);
#100=LINE('',#1967,#226);
#101=LINE('',#1971,#227);
#102=LINE('',#1973,#228);
#103=LINE('',#1975,#229);
#104=LINE('',#1976,#230);
#105=LINE('',#1978,#231);
#106=LINE('',#1980,#232);
#107=LINE('',#1981,#233);
#108=LINE('',#1983,#234);
#109=LINE('',#1985,#235);
#110=LINE('',#1989,#236);
#111=LINE('',#1991,#237);
#112=LINE('',#1993,#238);
#113=LINE('',#1997,#239);
#114=LINE('',#1999,#240);
#115=LINE('',#2001,#241);
#116=LINE('',#2005,#242);
#117=LINE('',#2007,#243);
#118=LINE('',#2009,#244);
#119=LINE('',#2011,#245);
#120=LINE('',#2012,#246);
#121=LINE('',#2014,#247);
#122=LINE('',#2016,#248);
#123=LINE('',#2018,#249);
#124=LINE('',#2020,#250);
#125=LINE('',#2022,#251);
#126=LINE('',#2026,#252);
#127=LINE('',#2028,#253);
#128=LINE('',#2030,#254);
#129=LINE('',#2034,#255);
#130=LINE('',#2036,#256);
#131=LINE('',#2038,#257);
#132=LINE('',#2097,#258);
#133=LINE('',#2099,#259);
#134=LINE('',#2101,#260);
#135=LINE('',#2103,#261);
#136=LINE('',#2105,#262);
#137=LINE('',#2108,#263);
#138=LINE('',#2110,#264);
#139=LINE('',#2112,#265);
#140=LINE('',#2114,#266);
#141=LINE('',#2116,#267);
#142=LINE('',#2119,#268);
#143=LINE('',#2121,#269);
#144=LINE('',#2123,#270);
#145=LINE('',#2125,#271);
#146=LINE('',#2127,#272);
#147=LINE('',#2130,#273);
#148=LINE('',#2132,#274);
#149=LINE('',#2134,#275);
#150=LINE('',#2136,#276);
#151=LINE('',#2138,#277);
#152=LINE('',#2141,#278);
#153=LINE('',#2143,#279);
#154=LINE('',#2145,#280);
#155=LINE('',#2147,#281);
#156=LINE('',#2149,#282);
#157=LINE('',#2152,#283);
#158=LINE('',#2154,#284);
#159=LINE('',#2156,#285);
#160=LINE('',#2158,#286);
#161=LINE('',#2160,#287);
#162=VECTOR('',#1445,1.);
#163=VECTOR('',#1446,1.);
#164=VECTOR('',#1447,1.);
#165=VECTOR('',#1448,1.);
#166=VECTOR('',#1449,1.);
#167=VECTOR('',#1452,1.);
#168=VECTOR('',#1455,1.);
#169=VECTOR('',#1458,1.);
#170=VECTOR('',#1459,1.);
#171=VECTOR('',#1460,1.);
#172=VECTOR('',#1461,1.);
#173=VECTOR('',#1462,1.);
#174=VECTOR('',#1463,1.);
#175=VECTOR('',#1464,1.);
#176=VECTOR('',#1465,1.);
#177=VECTOR('',#1466,1.);
#178=VECTOR('',#1469,1.);
#179=VECTOR('',#1472,1.);
#180=VECTOR('',#1475,1.);
#181=VECTOR('',#1476,1.);
#182=VECTOR('',#1477,1.);
#183=VECTOR('',#1478,1.);
#184=VECTOR('',#1479,1.);
#185=VECTOR('',#1480,1.);
#186=VECTOR('',#1481,1.);
#187=VECTOR('',#1484,1.);
#188=VECTOR('',#1487,1.);
#189=VECTOR('',#1490,1.);
#190=VECTOR('',#1491,1.);
#191=VECTOR('',#1492,1.);
#192=VECTOR('',#1493,1.);
#193=VECTOR('',#1494,1.);
#194=VECTOR('',#1495,1.);
#195=VECTOR('',#1496,1.);
#196=VECTOR('',#1497,1.);
#197=VECTOR('',#1498,1.);
#198=VECTOR('',#1501,1.);
#199=VECTOR('',#1504,1.);
#200=VECTOR('',#1509,1.);
#201=VECTOR('',#1510,1.);
#202=VECTOR('',#1511,1.);
#203=VECTOR('',#1512,1.);
#204=VECTOR('',#1513,1.);
#205=VECTOR('',#1514,1.);
#206=VECTOR('',#1515,1.);
#207=VECTOR('',#1516,1.);
#208=VECTOR('',#1517,1.);
#209=VECTOR('',#1522,1.);
#210=VECTOR('',#1525,1.);
#211=VECTOR('',#1526,1.);
#212=VECTOR('',#1531,1.);
#213=VECTOR('',#1534,1.);
#214=VECTOR('',#1535,1.);
#215=VECTOR('',#1540,1.);
#216=VECTOR('',#1543,1.);
#217=VECTOR('',#1544,1.);
#218=VECTOR('',#1545,1.);
#219=VECTOR('',#1546,1.);
#220=VECTOR('',#1547,1.);
#221=VECTOR('',#1552,1.);
#222=VECTOR('',#1555,1.);
#223=VECTOR('',#1556,1.);
#224=VECTOR('',#1561,1.);
#225=VECTOR('',#1564,1.);
#226=VECTOR('',#1565,1.);
#227=VECTOR('',#1570,1.);
#228=VECTOR('',#1573,1.);
#229=VECTOR('',#1574,1.);
#230=VECTOR('',#1575,1.);
#231=VECTOR('',#1576,1.);
#232=VECTOR('',#1577,1.);
#233=VECTOR('',#1578,1.);
#234=VECTOR('',#1579,1.);
#235=VECTOR('',#1580,1.);
#236=VECTOR('',#1585,1.);
#237=VECTOR('',#1588,1.);
#238=VECTOR('',#1589,1.);
#239=VECTOR('',#1594,1.);
#240=VECTOR('',#1597,1.);
#241=VECTOR('',#1598,1.);
#242=VECTOR('',#1603,1.);
#243=VECTOR('',#1606,1.);
#244=VECTOR('',#1607,1.);
#245=VECTOR('',#1608,1.);
#246=VECTOR('',#1609,1.);
#247=VECTOR('',#1610,1.);
#248=VECTOR('',#1613,1.);
#249=VECTOR('',#1614,1.);
#250=VECTOR('',#1617,1.);
#251=VECTOR('',#1618,1.);
#252=VECTOR('',#1623,1.);
#253=VECTOR('',#1626,1.);
#254=VECTOR('',#1627,1.);
#255=VECTOR('',#1632,1.);
#256=VECTOR('',#1635,1.);
#257=VECTOR('',#1636,1.);
#258=VECTOR('',#1717,1.);
#259=VECTOR('',#1718,1.);
#260=VECTOR('',#1719,1.);
#261=VECTOR('',#1722,1.);
#262=VECTOR('',#1725,1.);
#263=VECTOR('',#1730,1.);
#264=VECTOR('',#1731,1.);
#265=VECTOR('',#1734,1.);
#266=VECTOR('',#1735,1.);
#267=VECTOR('',#1738,1.);
#268=VECTOR('',#1743,1.);
#269=VECTOR('',#1744,1.);
#270=VECTOR('',#1747,1.);
#271=VECTOR('',#1748,1.);
#272=VECTOR('',#1751,1.);
#273=VECTOR('',#1756,1.);
#274=VECTOR('',#1757,1.);
#275=VECTOR('',#1760,1.);
#276=VECTOR('',#1761,1.);
#277=VECTOR('',#1764,1.);
#278=VECTOR('',#1769,1.);
#279=VECTOR('',#1770,1.);
#280=VECTOR('',#1771,1.);
#281=VECTOR('',#1774,1.);
#282=VECTOR('',#1777,1.);
#283=VECTOR('',#1782,1.);
#284=VECTOR('',#1783,1.);
#285=VECTOR('',#1784,1.);
#286=VECTOR('',#1787,1.);
#287=VECTOR('',#1790,1.);
#288=ORIENTED_EDGE('',*,*,#636,.F.);
#289=ORIENTED_EDGE('',*,*,#637,.F.);
#290=ORIENTED_EDGE('',*,*,#638,.F.);
#291=ORIENTED_EDGE('',*,*,#639,.F.);
#292=ORIENTED_EDGE('',*,*,#640,.F.);
#293=ORIENTED_EDGE('',*,*,#641,.F.);
#294=ORIENTED_EDGE('',*,*,#642,.T.);
#295=ORIENTED_EDGE('',*,*,#643,.T.);
#296=ORIENTED_EDGE('',*,*,#644,.F.);
#297=ORIENTED_EDGE('',*,*,#645,.F.);
#298=ORIENTED_EDGE('',*,*,#646,.T.);
#299=ORIENTED_EDGE('',*,*,#647,.F.);
#300=ORIENTED_EDGE('',*,*,#648,.F.);
#301=ORIENTED_EDGE('',*,*,#649,.T.);
#302=ORIENTED_EDGE('',*,*,#650,.T.);
#303=ORIENTED_EDGE('',*,*,#651,.F.);
#304=ORIENTED_EDGE('',*,*,#652,.F.);
#305=ORIENTED_EDGE('',*,*,#653,.T.);
#306=ORIENTED_EDGE('',*,*,#654,.T.);
#307=ORIENTED_EDGE('',*,*,#655,.T.);
#308=ORIENTED_EDGE('',*,*,#656,.F.);
#309=ORIENTED_EDGE('',*,*,#657,.F.);
#310=ORIENTED_EDGE('',*,*,#658,.F.);
#311=ORIENTED_EDGE('',*,*,#659,.F.);
#312=ORIENTED_EDGE('',*,*,#660,.F.);
#313=ORIENTED_EDGE('',*,*,#661,.F.);
#314=ORIENTED_EDGE('',*,*,#662,.F.);
#315=ORIENTED_EDGE('',*,*,#663,.T.);
#316=ORIENTED_EDGE('',*,*,#664,.T.);
#317=ORIENTED_EDGE('',*,*,#665,.F.);
#318=ORIENTED_EDGE('',*,*,#666,.T.);
#319=ORIENTED_EDGE('',*,*,#667,.F.);
#320=ORIENTED_EDGE('',*,*,#668,.F.);
#321=ORIENTED_EDGE('',*,*,#669,.F.);
#322=ORIENTED_EDGE('',*,*,#670,.T.);
#323=ORIENTED_EDGE('',*,*,#671,.F.);
#324=ORIENTED_EDGE('',*,*,#672,.F.);
#325=ORIENTED_EDGE('',*,*,#673,.F.);
#326=ORIENTED_EDGE('',*,*,#674,.F.);
#327=ORIENTED_EDGE('',*,*,#675,.T.);
#328=ORIENTED_EDGE('',*,*,#676,.T.);
#329=ORIENTED_EDGE('',*,*,#677,.F.);
#330=ORIENTED_EDGE('',*,*,#678,.F.);
#331=ORIENTED_EDGE('',*,*,#679,.F.);
#332=ORIENTED_EDGE('',*,*,#680,.F.);
#333=ORIENTED_EDGE('',*,*,#681,.F.);
#334=ORIENTED_EDGE('',*,*,#682,.F.);
#335=ORIENTED_EDGE('',*,*,#683,.T.);
#336=ORIENTED_EDGE('',*,*,#684,.T.);
#337=ORIENTED_EDGE('',*,*,#685,.T.);
#338=ORIENTED_EDGE('',*,*,#686,.F.);
#339=ORIENTED_EDGE('',*,*,#687,.F.);
#340=ORIENTED_EDGE('',*,*,#688,.F.);
#341=ORIENTED_EDGE('',*,*,#689,.T.);
#342=ORIENTED_EDGE('',*,*,#690,.T.);
#343=ORIENTED_EDGE('',*,*,#691,.F.);
#344=ORIENTED_EDGE('',*,*,#692,.T.);
#345=ORIENTED_EDGE('',*,*,#693,.F.);
#346=ORIENTED_EDGE('',*,*,#694,.F.);
#347=ORIENTED_EDGE('',*,*,#686,.T.);
#348=ORIENTED_EDGE('',*,*,#695,.F.);
#349=ORIENTED_EDGE('',*,*,#696,.T.);
#350=ORIENTED_EDGE('',*,*,#697,.T.);
#351=ORIENTED_EDGE('',*,*,#682,.T.);
#352=ORIENTED_EDGE('',*,*,#698,.F.);
#353=ORIENTED_EDGE('',*,*,#699,.T.);
#354=ORIENTED_EDGE('',*,*,#700,.T.);
#355=ORIENTED_EDGE('',*,*,#678,.T.);
#356=ORIENTED_EDGE('',*,*,#701,.F.);
#357=ORIENTED_EDGE('',*,*,#702,.F.);
#358=ORIENTED_EDGE('',*,*,#687,.T.);
#359=ORIENTED_EDGE('',*,*,#694,.T.);
#360=ORIENTED_EDGE('',*,*,#703,.F.);
#361=ORIENTED_EDGE('',*,*,#704,.F.);
#362=ORIENTED_EDGE('',*,*,#688,.T.);
#363=ORIENTED_EDGE('',*,*,#702,.T.);
#364=ORIENTED_EDGE('',*,*,#705,.T.);
#365=ORIENTED_EDGE('',*,*,#706,.F.);
#366=ORIENTED_EDGE('',*,*,#689,.F.);
#367=ORIENTED_EDGE('',*,*,#704,.T.);
#368=ORIENTED_EDGE('',*,*,#707,.T.);
#369=ORIENTED_EDGE('',*,*,#708,.F.);
#370=ORIENTED_EDGE('',*,*,#690,.F.);
#371=ORIENTED_EDGE('',*,*,#706,.T.);
#372=ORIENTED_EDGE('',*,*,#709,.F.);
#373=ORIENTED_EDGE('',*,*,#710,.F.);
#374=ORIENTED_EDGE('',*,*,#691,.T.);
#375=ORIENTED_EDGE('',*,*,#708,.T.);
#376=ORIENTED_EDGE('',*,*,#646,.F.);
#377=ORIENTED_EDGE('',*,*,#711,.F.);
#378=ORIENTED_EDGE('',*,*,#712,.F.);
#379=ORIENTED_EDGE('',*,*,#713,.T.);
#380=ORIENTED_EDGE('',*,*,#642,.F.);
#381=ORIENTED_EDGE('',*,*,#710,.T.);
#382=ORIENTED_EDGE('',*,*,#714,.T.);
#383=ORIENTED_EDGE('',*,*,#715,.F.);
#384=ORIENTED_EDGE('',*,*,#716,.F.);
#385=ORIENTED_EDGE('',*,*,#717,.F.);
#386=ORIENTED_EDGE('',*,*,#647,.T.);
#387=ORIENTED_EDGE('',*,*,#715,.T.);
#388=ORIENTED_EDGE('',*,*,#718,.F.);
#389=ORIENTED_EDGE('',*,*,#719,.F.);
#390=ORIENTED_EDGE('',*,*,#648,.T.);
#391=ORIENTED_EDGE('',*,*,#717,.T.);
#392=ORIENTED_EDGE('',*,*,#720,.T.);
#393=ORIENTED_EDGE('',*,*,#721,.F.);
#394=ORIENTED_EDGE('',*,*,#649,.F.);
#395=ORIENTED_EDGE('',*,*,#719,.T.);
#396=ORIENTED_EDGE('',*,*,#722,.T.);
#397=ORIENTED_EDGE('',*,*,#723,.F.);
#398=ORIENTED_EDGE('',*,*,#650,.F.);
#399=ORIENTED_EDGE('',*,*,#721,.T.);
#400=ORIENTED_EDGE('',*,*,#724,.F.);
#401=ORIENTED_EDGE('',*,*,#725,.F.);
#402=ORIENTED_EDGE('',*,*,#651,.T.);
#403=ORIENTED_EDGE('',*,*,#723,.T.);
#404=ORIENTED_EDGE('',*,*,#725,.T.);
#405=ORIENTED_EDGE('',*,*,#726,.F.);
#406=ORIENTED_EDGE('',*,*,#727,.F.);
#407=ORIENTED_EDGE('',*,*,#660,.T.);
#408=ORIENTED_EDGE('',*,*,#728,.F.);
#409=ORIENTED_EDGE('',*,*,#729,.T.);
#410=ORIENTED_EDGE('',*,*,#730,.T.);
#411=ORIENTED_EDGE('',*,*,#656,.T.);
#412=ORIENTED_EDGE('',*,*,#731,.F.);
#413=ORIENTED_EDGE('',*,*,#732,.T.);
#414=ORIENTED_EDGE('',*,*,#733,.T.);
#415=ORIENTED_EDGE('',*,*,#652,.T.);
#416=ORIENTED_EDGE('',*,*,#734,.F.);
#417=ORIENTED_EDGE('',*,*,#735,.F.);
#418=ORIENTED_EDGE('',*,*,#661,.T.);
#419=ORIENTED_EDGE('',*,*,#727,.T.);
#420=ORIENTED_EDGE('',*,*,#736,.F.);
#421=ORIENTED_EDGE('',*,*,#737,.F.);
#422=ORIENTED_EDGE('',*,*,#662,.T.);
#423=ORIENTED_EDGE('',*,*,#735,.T.);
#424=ORIENTED_EDGE('',*,*,#738,.T.);
#425=ORIENTED_EDGE('',*,*,#739,.F.);
#426=ORIENTED_EDGE('',*,*,#663,.F.);
#427=ORIENTED_EDGE('',*,*,#737,.T.);
#428=ORIENTED_EDGE('',*,*,#740,.T.);
#429=ORIENTED_EDGE('',*,*,#741,.F.);
#430=ORIENTED_EDGE('',*,*,#664,.F.);
#431=ORIENTED_EDGE('',*,*,#739,.T.);
#432=ORIENTED_EDGE('',*,*,#742,.F.);
#433=ORIENTED_EDGE('',*,*,#743,.F.);
#434=ORIENTED_EDGE('',*,*,#665,.T.);
#435=ORIENTED_EDGE('',*,*,#741,.T.);
#436=ORIENTED_EDGE('',*,*,#670,.F.);
#437=ORIENTED_EDGE('',*,*,#744,.F.);
#438=ORIENTED_EDGE('',*,*,#745,.F.);
#439=ORIENTED_EDGE('',*,*,#746,.T.);
#440=ORIENTED_EDGE('',*,*,#666,.F.);
#441=ORIENTED_EDGE('',*,*,#743,.T.);
#442=ORIENTED_EDGE('',*,*,#747,.T.);
#443=ORIENTED_EDGE('',*,*,#748,.F.);
#444=ORIENTED_EDGE('',*,*,#749,.F.);
#445=ORIENTED_EDGE('',*,*,#750,.F.);
#446=ORIENTED_EDGE('',*,*,#671,.T.);
#447=ORIENTED_EDGE('',*,*,#748,.T.);
#448=ORIENTED_EDGE('',*,*,#751,.F.);
#449=ORIENTED_EDGE('',*,*,#752,.F.);
#450=ORIENTED_EDGE('',*,*,#672,.T.);
#451=ORIENTED_EDGE('',*,*,#750,.T.);
#452=ORIENTED_EDGE('',*,*,#753,.F.);
#453=ORIENTED_EDGE('',*,*,#754,.F.);
#454=ORIENTED_EDGE('',*,*,#673,.T.);
#455=ORIENTED_EDGE('',*,*,#752,.T.);
#456=ORIENTED_EDGE('',*,*,#755,.F.);
#457=ORIENTED_EDGE('',*,*,#756,.F.);
#458=ORIENTED_EDGE('',*,*,#674,.T.);
#459=ORIENTED_EDGE('',*,*,#754,.T.);
#460=ORIENTED_EDGE('',*,*,#757,.T.);
#461=ORIENTED_EDGE('',*,*,#758,.F.);
#462=ORIENTED_EDGE('',*,*,#675,.F.);
#463=ORIENTED_EDGE('',*,*,#756,.T.);
#464=ORIENTED_EDGE('',*,*,#759,.T.);
#465=ORIENTED_EDGE('',*,*,#760,.F.);
#466=ORIENTED_EDGE('',*,*,#676,.F.);
#467=ORIENTED_EDGE('',*,*,#758,.T.);
#468=ORIENTED_EDGE('',*,*,#761,.F.);
#469=ORIENTED_EDGE('',*,*,#640,.T.);
#470=ORIENTED_EDGE('',*,*,#762,.F.);
#471=ORIENTED_EDGE('',*,*,#639,.T.);
#472=ORIENTED_EDGE('',*,*,#763,.F.);
#473=ORIENTED_EDGE('',*,*,#638,.T.);
#474=ORIENTED_EDGE('',*,*,#764,.F.);
#475=ORIENTED_EDGE('',*,*,#637,.T.);
#476=ORIENTED_EDGE('',*,*,#765,.F.);
#477=ORIENTED_EDGE('',*,*,#636,.T.);
#478=ORIENTED_EDGE('',*,*,#766,.F.);
#479=ORIENTED_EDGE('',*,*,#692,.F.);
#480=ORIENTED_EDGE('',*,*,#677,.T.);
#481=ORIENTED_EDGE('',*,*,#760,.T.);
#482=ORIENTED_EDGE('',*,*,#767,.F.);
#483=ORIENTED_EDGE('',*,*,#641,.T.);
#484=ORIENTED_EDGE('',*,*,#716,.T.);
#485=ORIENTED_EDGE('',*,*,#714,.F.);
#486=ORIENTED_EDGE('',*,*,#709,.T.);
#487=ORIENTED_EDGE('',*,*,#707,.F.);
#488=ORIENTED_EDGE('',*,*,#705,.F.);
#489=ORIENTED_EDGE('',*,*,#703,.T.);
#490=ORIENTED_EDGE('',*,*,#701,.T.);
#491=ORIENTED_EDGE('',*,*,#693,.T.);
#492=ORIENTED_EDGE('',*,*,#766,.T.);
#493=ORIENTED_EDGE('',*,*,#759,.F.);
#494=ORIENTED_EDGE('',*,*,#757,.F.);
#495=ORIENTED_EDGE('',*,*,#755,.T.);
#496=ORIENTED_EDGE('',*,*,#753,.T.);
#497=ORIENTED_EDGE('',*,*,#751,.T.);
#498=ORIENTED_EDGE('',*,*,#749,.T.);
#499=ORIENTED_EDGE('',*,*,#747,.F.);
#500=ORIENTED_EDGE('',*,*,#742,.T.);
#501=ORIENTED_EDGE('',*,*,#740,.F.);
#502=ORIENTED_EDGE('',*,*,#738,.F.);
#503=ORIENTED_EDGE('',*,*,#736,.T.);
#504=ORIENTED_EDGE('',*,*,#734,.T.);
#505=ORIENTED_EDGE('',*,*,#726,.T.);
#506=ORIENTED_EDGE('',*,*,#724,.T.);
#507=ORIENTED_EDGE('',*,*,#722,.F.);
#508=ORIENTED_EDGE('',*,*,#720,.F.);
#509=ORIENTED_EDGE('',*,*,#718,.T.);
#510=ORIENTED_EDGE('',*,*,#768,.T.);
#511=ORIENTED_EDGE('',*,*,#769,.T.);
#512=ORIENTED_EDGE('',*,*,#770,.T.);
#513=ORIENTED_EDGE('',*,*,#771,.T.);
#514=ORIENTED_EDGE('',*,*,#772,.T.);
#515=ORIENTED_EDGE('',*,*,#773,.T.);
#516=ORIENTED_EDGE('',*,*,#774,.T.);
#517=ORIENTED_EDGE('',*,*,#773,.F.);
#518=ORIENTED_EDGE('',*,*,#765,.T.);
#519=ORIENTED_EDGE('',*,*,#774,.F.);
#520=ORIENTED_EDGE('',*,*,#775,.T.);
#521=ORIENTED_EDGE('',*,*,#772,.F.);
#522=ORIENTED_EDGE('',*,*,#763,.T.);
#523=ORIENTED_EDGE('',*,*,#775,.F.);
#524=ORIENTED_EDGE('',*,*,#776,.T.);
#525=ORIENTED_EDGE('',*,*,#771,.F.);
#526=ORIENTED_EDGE('',*,*,#764,.T.);
#527=ORIENTED_EDGE('',*,*,#776,.F.);
#528=ORIENTED_EDGE('',*,*,#777,.T.);
#529=ORIENTED_EDGE('',*,*,#770,.F.);
#530=ORIENTED_EDGE('',*,*,#762,.T.);
#531=ORIENTED_EDGE('',*,*,#777,.F.);
#532=ORIENTED_EDGE('',*,*,#778,.T.);
#533=ORIENTED_EDGE('',*,*,#769,.F.);
#534=ORIENTED_EDGE('',*,*,#767,.T.);
#535=ORIENTED_EDGE('',*,*,#778,.F.);
#536=ORIENTED_EDGE('',*,*,#779,.T.);
#537=ORIENTED_EDGE('',*,*,#768,.F.);
#538=ORIENTED_EDGE('',*,*,#761,.T.);
#539=ORIENTED_EDGE('',*,*,#779,.F.);
#540=ORIENTED_EDGE('',*,*,#684,.F.);
#541=ORIENTED_EDGE('',*,*,#780,.F.);
#542=ORIENTED_EDGE('',*,*,#781,.F.);
#543=ORIENTED_EDGE('',*,*,#782,.T.);
#544=ORIENTED_EDGE('',*,*,#683,.F.);
#545=ORIENTED_EDGE('',*,*,#697,.F.);
#546=ORIENTED_EDGE('',*,*,#783,.F.);
#547=ORIENTED_EDGE('',*,*,#780,.T.);
#548=ORIENTED_EDGE('',*,*,#685,.F.);
#549=ORIENTED_EDGE('',*,*,#782,.F.);
#550=ORIENTED_EDGE('',*,*,#784,.F.);
#551=ORIENTED_EDGE('',*,*,#695,.T.);
#552=ORIENTED_EDGE('',*,*,#781,.T.);
#553=ORIENTED_EDGE('',*,*,#783,.T.);
#554=ORIENTED_EDGE('',*,*,#696,.F.);
#555=ORIENTED_EDGE('',*,*,#784,.T.);
#556=ORIENTED_EDGE('',*,*,#698,.T.);
#557=ORIENTED_EDGE('',*,*,#681,.T.);
#558=ORIENTED_EDGE('',*,*,#785,.F.);
#559=ORIENTED_EDGE('',*,*,#786,.T.);
#560=ORIENTED_EDGE('',*,*,#785,.T.);
#561=ORIENTED_EDGE('',*,*,#680,.T.);
#562=ORIENTED_EDGE('',*,*,#787,.F.);
#563=ORIENTED_EDGE('',*,*,#788,.T.);
#564=ORIENTED_EDGE('',*,*,#787,.T.);
#565=ORIENTED_EDGE('',*,*,#679,.T.);
#566=ORIENTED_EDGE('',*,*,#700,.F.);
#567=ORIENTED_EDGE('',*,*,#789,.T.);
#568=ORIENTED_EDGE('',*,*,#786,.F.);
#569=ORIENTED_EDGE('',*,*,#788,.F.);
#570=ORIENTED_EDGE('',*,*,#789,.F.);
#571=ORIENTED_EDGE('',*,*,#699,.F.);
#572=ORIENTED_EDGE('',*,*,#744,.T.);
#573=ORIENTED_EDGE('',*,*,#669,.T.);
#574=ORIENTED_EDGE('',*,*,#790,.F.);
#575=ORIENTED_EDGE('',*,*,#791,.T.);
#576=ORIENTED_EDGE('',*,*,#790,.T.);
#577=ORIENTED_EDGE('',*,*,#668,.T.);
#578=ORIENTED_EDGE('',*,*,#792,.F.);
#579=ORIENTED_EDGE('',*,*,#793,.T.);
#580=ORIENTED_EDGE('',*,*,#792,.T.);
#581=ORIENTED_EDGE('',*,*,#667,.T.);
#582=ORIENTED_EDGE('',*,*,#746,.F.);
#583=ORIENTED_EDGE('',*,*,#794,.T.);
#584=ORIENTED_EDGE('',*,*,#791,.F.);
#585=ORIENTED_EDGE('',*,*,#793,.F.);
#586=ORIENTED_EDGE('',*,*,#794,.F.);
#587=ORIENTED_EDGE('',*,*,#745,.T.);
#588=ORIENTED_EDGE('',*,*,#728,.T.);
#589=ORIENTED_EDGE('',*,*,#659,.T.);
#590=ORIENTED_EDGE('',*,*,#795,.F.);
#591=ORIENTED_EDGE('',*,*,#796,.T.);
#592=ORIENTED_EDGE('',*,*,#795,.T.);
#593=ORIENTED_EDGE('',*,*,#658,.T.);
#594=ORIENTED_EDGE('',*,*,#797,.F.);
#595=ORIENTED_EDGE('',*,*,#798,.T.);
#596=ORIENTED_EDGE('',*,*,#797,.T.);
#597=ORIENTED_EDGE('',*,*,#657,.T.);
#598=ORIENTED_EDGE('',*,*,#730,.F.);
#599=ORIENTED_EDGE('',*,*,#799,.T.);
#600=ORIENTED_EDGE('',*,*,#796,.F.);
#601=ORIENTED_EDGE('',*,*,#798,.F.);
#602=ORIENTED_EDGE('',*,*,#799,.F.);
#603=ORIENTED_EDGE('',*,*,#729,.F.);
#604=ORIENTED_EDGE('',*,*,#654,.F.);
#605=ORIENTED_EDGE('',*,*,#800,.F.);
#606=ORIENTED_EDGE('',*,*,#801,.F.);
#607=ORIENTED_EDGE('',*,*,#802,.T.);
#608=ORIENTED_EDGE('',*,*,#653,.F.);
#609=ORIENTED_EDGE('',*,*,#733,.F.);
#610=ORIENTED_EDGE('',*,*,#803,.F.);
#611=ORIENTED_EDGE('',*,*,#800,.T.);
#612=ORIENTED_EDGE('',*,*,#655,.F.);
#613=ORIENTED_EDGE('',*,*,#802,.F.);
#614=ORIENTED_EDGE('',*,*,#804,.F.);
#615=ORIENTED_EDGE('',*,*,#731,.T.);
#616=ORIENTED_EDGE('',*,*,#801,.T.);
#617=ORIENTED_EDGE('',*,*,#803,.T.);
#618=ORIENTED_EDGE('',*,*,#732,.F.);
#619=ORIENTED_EDGE('',*,*,#804,.T.);
#620=ORIENTED_EDGE('',*,*,#805,.T.);
#621=ORIENTED_EDGE('',*,*,#644,.T.);
#622=ORIENTED_EDGE('',*,*,#806,.F.);
#623=ORIENTED_EDGE('',*,*,#807,.T.);
#624=ORIENTED_EDGE('',*,*,#643,.F.);
#625=ORIENTED_EDGE('',*,*,#713,.F.);
#626=ORIENTED_EDGE('',*,*,#808,.F.);
#627=ORIENTED_EDGE('',*,*,#806,.T.);
#628=ORIENTED_EDGE('',*,*,#711,.T.);
#629=ORIENTED_EDGE('',*,*,#645,.T.);
#630=ORIENTED_EDGE('',*,*,#805,.F.);
#631=ORIENTED_EDGE('',*,*,#809,.T.);
#632=ORIENTED_EDGE('',*,*,#807,.F.);
#633=ORIENTED_EDGE('',*,*,#808,.T.);
#634=ORIENTED_EDGE('',*,*,#712,.T.);
#635=ORIENTED_EDGE('',*,*,#809,.F.);
#636=EDGE_CURVE('',#810,#810,#934,.T.);
#637=EDGE_CURVE('',#811,#811,#935,.T.);
#638=EDGE_CURVE('',#812,#812,#936,.T.);
#639=EDGE_CURVE('',#813,#813,#937,.T.);
#640=EDGE_CURVE('',#814,#814,#938,.T.);
#641=EDGE_CURVE('',#815,#815,#939,.T.);
#642=EDGE_CURVE('',#816,#817,#36,.T.);
#643=EDGE_CURVE('',#817,#818,#37,.T.);
#644=EDGE_CURVE('',#819,#818,#38,.T.);
#645=EDGE_CURVE('',#820,#819,#39,.T.);
#646=EDGE_CURVE('',#820,#821,#40,.T.);
#647=EDGE_CURVE('',#822,#821,#940,.T.);
#648=EDGE_CURVE('',#823,#822,#41,.T.);
#649=EDGE_CURVE('',#823,#824,#941,.T.);
#650=EDGE_CURVE('',#824,#825,#42,.T.);
#651=EDGE_CURVE('',#826,#825,#942,.T.);
#652=EDGE_CURVE('',#827,#826,#43,.T.);
#653=EDGE_CURVE('',#827,#828,#44,.T.);
#654=EDGE_CURVE('',#828,#829,#45,.T.);
#655=EDGE_CURVE('',#829,#830,#46,.T.);
#656=EDGE_CURVE('',#831,#830,#47,.T.);
#657=EDGE_CURVE('',#832,#831,#48,.T.);
#658=EDGE_CURVE('',#833,#832,#49,.T.);
#659=EDGE_CURVE('',#834,#833,#50,.T.);
#660=EDGE_CURVE('',#835,#834,#51,.T.);
#661=EDGE_CURVE('',#836,#835,#943,.T.);
#662=EDGE_CURVE('',#837,#836,#52,.T.);
#663=EDGE_CURVE('',#837,#838,#944,.T.);
#664=EDGE_CURVE('',#838,#839,#53,.T.);
#665=EDGE_CURVE('',#840,#839,#945,.T.);
#666=EDGE_CURVE('',#840,#841,#54,.T.);
#667=EDGE_CURVE('',#842,#841,#55,.T.);
#668=EDGE_CURVE('',#843,#842,#56,.T.);
#669=EDGE_CURVE('',#844,#843,#57,.T.);
#670=EDGE_CURVE('',#844,#845,#58,.T.);
#671=EDGE_CURVE('',#846,#845,#59,.T.);
#672=EDGE_CURVE('',#847,#846,#60,.T.);
#673=EDGE_CURVE('',#848,#847,#946,.T.);
#674=EDGE_CURVE('',#849,#848,#61,.T.);
#675=EDGE_CURVE('',#849,#850,#947,.T.);
#676=EDGE_CURVE('',#850,#851,#62,.T.);
#677=EDGE_CURVE('',#852,#851,#948,.T.);
#678=EDGE_CURVE('',#853,#852,#63,.T.);
#679=EDGE_CURVE('',#854,#853,#64,.T.);
#680=EDGE_CURVE('',#855,#854,#65,.T.);
#681=EDGE_CURVE('',#856,#855,#66,.T.);
#682=EDGE_CURVE('',#857,#856,#67,.T.);
#683=EDGE_CURVE('',#857,#858,#68,.T.);
#684=EDGE_CURVE('',#858,#859,#69,.T.);
#685=EDGE_CURVE('',#859,#860,#70,.T.);
#686=EDGE_CURVE('',#861,#860,#71,.T.);
#687=EDGE_CURVE('',#862,#861,#949,.T.);
#688=EDGE_CURVE('',#863,#862,#72,.T.);
#689=EDGE_CURVE('',#863,#864,#950,.T.);
#690=EDGE_CURVE('',#864,#865,#73,.T.);
#691=EDGE_CURVE('',#816,#865,#951,.T.);
#692=EDGE_CURVE('',#852,#866,#74,.T.);
#693=EDGE_CURVE('',#867,#866,#75,.T.);
#694=EDGE_CURVE('',#861,#867,#76,.T.);
#695=EDGE_CURVE('',#868,#860,#77,.T.);
#696=EDGE_CURVE('',#868,#869,#78,.T.);
#697=EDGE_CURVE('',#869,#857,#79,.T.);
#698=EDGE_CURVE('',#870,#856,#80,.T.);
#699=EDGE_CURVE('',#870,#871,#81,.T.);
#700=EDGE_CURVE('',#871,#853,#82,.T.);
#701=EDGE_CURVE('',#872,#867,#952,.T.);
#702=EDGE_CURVE('',#862,#872,#83,.T.);
#703=EDGE_CURVE('',#873,#872,#84,.T.);
#704=EDGE_CURVE('',#863,#873,#85,.T.);
#705=EDGE_CURVE('',#873,#874,#953,.T.);
#706=EDGE_CURVE('',#864,#874,#86,.T.);
#707=EDGE_CURVE('',#874,#875,#87,.T.);
#708=EDGE_CURVE('',#865,#875,#88,.T.);
#709=EDGE_CURVE('',#876,#875,#954,.T.);
#710=EDGE_CURVE('',#816,#876,#89,.T.);
#711=EDGE_CURVE('',#877,#820,#90,.T.);
#712=EDGE_CURVE('',#878,#877,#91,.T.);
#713=EDGE_CURVE('',#878,#817,#92,.T.);
#714=EDGE_CURVE('',#876,#879,#93,.T.);
#715=EDGE_CURVE('',#821,#879,#94,.T.);
#716=EDGE_CURVE('',#880,#879,#955,.T.);
#717=EDGE_CURVE('',#822,#880,#95,.T.);
#718=EDGE_CURVE('',#881,#880,#96,.T.);
#719=EDGE_CURVE('',#823,#881,#97,.T.);
#720=EDGE_CURVE('',#881,#882,#956,.T.);
#721=EDGE_CURVE('',#824,#882,#98,.T.);
#722=EDGE_CURVE('',#882,#883,#99,.T.);
#723=EDGE_CURVE('',#825,#883,#100,.T.);
#724=EDGE_CURVE('',#884,#883,#957,.T.);
#725=EDGE_CURVE('',#826,#884,#101,.T.);
#726=EDGE_CURVE('',#885,#884,#102,.T.);
#727=EDGE_CURVE('',#835,#885,#103,.T.);
#728=EDGE_CURVE('',#886,#834,#104,.T.);
#729=EDGE_CURVE('',#886,#887,#105,.T.);
#730=EDGE_CURVE('',#887,#831,#106,.T.);
#731=EDGE_CURVE('',#888,#830,#107,.T.);
#732=EDGE_CURVE('',#888,#889,#108,.T.);
#733=EDGE_CURVE('',#889,#827,#109,.T.);
#734=EDGE_CURVE('',#890,#885,#958,.T.);
#735=EDGE_CURVE('',#836,#890,#110,.T.);
#736=EDGE_CURVE('',#891,#890,#111,.T.);
#737=EDGE_CURVE('',#837,#891,#112,.T.);
#738=EDGE_CURVE('',#891,#892,#959,.T.);
#739=EDGE_CURVE('',#838,#892,#113,.T.);
#740=EDGE_CURVE('',#892,#893,#114,.T.);
#741=EDGE_CURVE('',#839,#893,#115,.T.);
#742=EDGE_CURVE('',#894,#893,#960,.T.);
#743=EDGE_CURVE('',#840,#894,#116,.T.);
#744=EDGE_CURVE('',#895,#844,#117,.T.);
#745=EDGE_CURVE('',#896,#895,#118,.T.);
#746=EDGE_CURVE('',#896,#841,#119,.T.);
#747=EDGE_CURVE('',#894,#897,#120,.T.);
#748=EDGE_CURVE('',#845,#897,#121,.T.);
#749=EDGE_CURVE('',#898,#897,#122,.T.);
#750=EDGE_CURVE('',#846,#898,#123,.T.);
#751=EDGE_CURVE('',#899,#898,#124,.T.);
#752=EDGE_CURVE('',#847,#899,#125,.T.);
#753=EDGE_CURVE('',#900,#899,#961,.T.);
#754=EDGE_CURVE('',#848,#900,#126,.T.);
#755=EDGE_CURVE('',#901,#900,#127,.T.);
#756=EDGE_CURVE('',#849,#901,#128,.T.);
#757=EDGE_CURVE('',#901,#902,#962,.T.);
#758=EDGE_CURVE('',#850,#902,#129,.T.);
#759=EDGE_CURVE('',#902,#903,#130,.T.);
#760=EDGE_CURVE('',#851,#903,#131,.T.);
#761=EDGE_CURVE('',#904,#904,#963,.T.);
#762=EDGE_CURVE('',#905,#905,#964,.T.);
#763=EDGE_CURVE('',#906,#906,#965,.T.);
#764=EDGE_CURVE('',#907,#907,#966,.T.);
#765=EDGE_CURVE('',#908,#908,#967,.T.);
#766=EDGE_CURVE('',#866,#903,#968,.T.);
#767=EDGE_CURVE('',#909,#909,#969,.T.);
#768=EDGE_CURVE('',#910,#910,#970,.T.);
#769=EDGE_CURVE('',#911,#911,#971,.T.);
#770=EDGE_CURVE('',#912,#912,#972,.T.);
#771=EDGE_CURVE('',#913,#913,#973,.T.);
#772=EDGE_CURVE('',#914,#914,#974,.T.);
#773=EDGE_CURVE('',#915,#915,#975,.T.);
#774=EDGE_CURVE('',#916,#916,#976,.T.);
#775=EDGE_CURVE('',#917,#917,#977,.T.);
#776=EDGE_CURVE('',#918,#918,#978,.T.);
#777=EDGE_CURVE('',#919,#919,#979,.T.);
#778=EDGE_CURVE('',#920,#920,#980,.T.);
#779=EDGE_CURVE('',#921,#921,#981,.T.);
#780=EDGE_CURVE('',#922,#858,#132,.T.);
#781=EDGE_CURVE('',#923,#922,#133,.T.);
#782=EDGE_CURVE('',#923,#859,#134,.T.);
#783=EDGE_CURVE('',#922,#869,#135,.T.);
#784=EDGE_CURVE('',#868,#923,#136,.T.);
#785=EDGE_CURVE('',#924,#855,#137,.T.);
#786=EDGE_CURVE('',#924,#870,#138,.T.);
#787=EDGE_CURVE('',#925,#854,#139,.T.);
#788=EDGE_CURVE('',#925,#924,#140,.T.);
#789=EDGE_CURVE('',#871,#925,#141,.T.);
#790=EDGE_CURVE('',#926,#843,#142,.T.);
#791=EDGE_CURVE('',#926,#895,#143,.T.);
#792=EDGE_CURVE('',#927,#842,#144,.T.);
#793=EDGE_CURVE('',#927,#926,#145,.T.);
#794=EDGE_CURVE('',#896,#927,#146,.T.);
#795=EDGE_CURVE('',#928,#833,#147,.T.);
#796=EDGE_CURVE('',#928,#886,#148,.T.);
#797=EDGE_CURVE('',#929,#832,#149,.T.);
#798=EDGE_CURVE('',#929,#928,#150,.T.);
#799=EDGE_CURVE('',#887,#929,#151,.T.);
#800=EDGE_CURVE('',#930,#828,#152,.T.);
#801=EDGE_CURVE('',#931,#930,#153,.T.);
#802=EDGE_CURVE('',#931,#829,#154,.T.);
#803=EDGE_CURVE('',#930,#889,#155,.T.);
#804=EDGE_CURVE('',#888,#931,#156,.T.);
#805=EDGE_CURVE('',#932,#819,#157,.T.);
#806=EDGE_CURVE('',#933,#818,#158,.T.);
#807=EDGE_CURVE('',#933,#932,#159,.T.);
#808=EDGE_CURVE('',#933,#878,#160,.T.);
#809=EDGE_CURVE('',#932,#877,#161,.T.);
#810=VERTEX_POINT('',#1796);
#811=VERTEX_POINT('',#1798);
#812=VERTEX_POINT('',#1800);
#813=VERTEX_POINT('',#1802);
#814=VERTEX_POINT('',#1804);
#815=VERTEX_POINT('',#1806);
#816=VERTEX_POINT('',#1808);
#817=VERTEX_POINT('',#1809);
#818=VERTEX_POINT('',#1811);
#819=VERTEX_POINT('',#1813);
#820=VERTEX_POINT('',#1815);
#821=VERTEX_POINT('',#1817);
#822=VERTEX_POINT('',#1819);
#823=VERTEX_POINT('',#1821);
#824=VERTEX_POINT('',#1823);
#825=VERTEX_POINT('',#1825);
#826=VERTEX_POINT('',#1827);
#827=VERTEX_POINT('',#1829);
#828=VERTEX_POINT('',#1831);
#829=VERTEX_POINT('',#1833);
#830=VERTEX_POINT('',#1835);
#831=VERTEX_POINT('',#1837);
#832=VERTEX_POINT('',#1839);
#833=VERTEX_POINT('',#1841);
#834=VERTEX_POINT('',#1843);
#835=VERTEX_POINT('',#1845);
#836=VERTEX_POINT('',#1847);
#837=VERTEX_POINT('',#1849);
#838=VERTEX_POINT('',#1851);
#839=VERTEX_POINT('',#1853);
#840=VERTEX_POINT('',#1855);
#841=VERTEX_POINT('',#1857);
#842=VERTEX_POINT('',#1859);
#843=VERTEX_POINT('',#1861);
#844=VERTEX_POINT('',#1863);
#845=VERTEX_POINT('',#1865);
#846=VERTEX_POINT('',#1867);
#847=VERTEX_POINT('',#1869);
#848=VERTEX_POINT('',#1871);
#849=VERTEX_POINT('',#1873);
#850=VERTEX_POINT('',#1875);
#851=VERTEX_POINT('',#1877);
#852=VERTEX_POINT('',#1879);
#853=VERTEX_POINT('',#1881);
#854=VERTEX_POINT('',#1883);
#855=VERTEX_POINT('',#1885);
#856=VERTEX_POINT('',#1887);
#857=VERTEX_POINT('',#1889);
#858=VERTEX_POINT('',#1891);
#859=VERTEX_POINT('',#1893);
#860=VERTEX_POINT('',#1895);
#861=VERTEX_POINT('',#1897);
#862=VERTEX_POINT('',#1899);
#863=VERTEX_POINT('',#1901);
#864=VERTEX_POINT('',#1903);
#865=VERTEX_POINT('',#1905);
#866=VERTEX_POINT('',#1909);
#867=VERTEX_POINT('',#1911);
#868=VERTEX_POINT('',#1914);
#869=VERTEX_POINT('',#1916);
#870=VERTEX_POINT('',#1919);
#871=VERTEX_POINT('',#1921);
#872=VERTEX_POINT('',#1925);
#873=VERTEX_POINT('',#1929);
#874=VERTEX_POINT('',#1933);
#875=VERTEX_POINT('',#1937);
#876=VERTEX_POINT('',#1941);
#877=VERTEX_POINT('',#1945);
#878=VERTEX_POINT('',#1947);
#879=VERTEX_POINT('',#1950);
#880=VERTEX_POINT('',#1954);
#881=VERTEX_POINT('',#1958);
#882=VERTEX_POINT('',#1962);
#883=VERTEX_POINT('',#1966);
#884=VERTEX_POINT('',#1970);
#885=VERTEX_POINT('',#1974);
#886=VERTEX_POINT('',#1977);
#887=VERTEX_POINT('',#1979);
#888=VERTEX_POINT('',#1982);
#889=VERTEX_POINT('',#1984);
#890=VERTEX_POINT('',#1988);
#891=VERTEX_POINT('',#1992);
#892=VERTEX_POINT('',#1996);
#893=VERTEX_POINT('',#2000);
#894=VERTEX_POINT('',#2004);
#895=VERTEX_POINT('',#2008);
#896=VERTEX_POINT('',#2010);
#897=VERTEX_POINT('',#2013);
#898=VERTEX_POINT('',#2017);
#899=VERTEX_POINT('',#2021);
#900=VERTEX_POINT('',#2025);
#901=VERTEX_POINT('',#2029);
#902=VERTEX_POINT('',#2033);
#903=VERTEX_POINT('',#2037);
#904=VERTEX_POINT('',#2041);
#905=VERTEX_POINT('',#2044);
#906=VERTEX_POINT('',#2047);
#907=VERTEX_POINT('',#2050);
#908=VERTEX_POINT('',#2053);
#909=VERTEX_POINT('',#2058);
#910=VERTEX_POINT('',#2061);
#911=VERTEX_POINT('',#2063);
#912=VERTEX_POINT('',#2065);
#913=VERTEX_POINT('',#2067);
#914=VERTEX_POINT('',#2069);
#915=VERTEX_POINT('',#2071);
#916=VERTEX_POINT('',#2074);
#917=VERTEX_POINT('',#2078);
#918=VERTEX_POINT('',#2082);
#919=VERTEX_POINT('',#2086);
#920=VERTEX_POINT('',#2090);
#921=VERTEX_POINT('',#2094);
#922=VERTEX_POINT('',#2098);
#923=VERTEX_POINT('',#2100);
#924=VERTEX_POINT('',#2109);
#925=VERTEX_POINT('',#2113);
#926=VERTEX_POINT('',#2120);
#927=VERTEX_POINT('',#2124);
#928=VERTEX_POINT('',#2131);
#929=VERTEX_POINT('',#2135);
#930=VERTEX_POINT('',#2142);
#931=VERTEX_POINT('',#2144);
#932=VERTEX_POINT('',#2153);
#933=VERTEX_POINT('',#2155);
#934=CIRCLE('',#1312,0.001);
#935=CIRCLE('',#1313,0.001);
#936=CIRCLE('',#1314,0.001);
#937=CIRCLE('',#1315,0.001);
#938=CIRCLE('',#1316,0.001);
#939=CIRCLE('',#1317,0.001);
#940=CIRCLE('',#1318,0.005);
#941=CIRCLE('',#1319,0.0025);
#942=CIRCLE('',#1320,0.00500000000000008);
#943=CIRCLE('',#1321,0.005);
#944=CIRCLE('',#1322,0.0025);
#945=CIRCLE('',#1323,0.005);
#946=CIRCLE('',#1324,0.00500000000000009);
#947=CIRCLE('',#1325,0.0025);
#948=CIRCLE('',#1326,0.00499999999999994);
#949=CIRCLE('',#1327,0.00500000000000008);
#950=CIRCLE('',#1328,0.0025);
#951=CIRCLE('',#1329,0.005);
#952=CIRCLE('',#1332,0.00500000000000008);
#953=CIRCLE('',#1335,0.0025);
#954=CIRCLE('',#1338,0.005);
#955=CIRCLE('',#1341,0.005);
#956=CIRCLE('',#1344,0.0025);
#957=CIRCLE('',#1347,0.00500000000000008);
#958=CIRCLE('',#1350,0.005);
#959=CIRCLE('',#1353,0.0025);
#960=CIRCLE('',#1356,0.005);
#961=CIRCLE('',#1361,0.00500000000000009);
#962=CIRCLE('',#1364,0.0025);
#963=CIRCLE('',#1367,0.001);
#964=CIRCLE('',#1369,0.001);
#965=CIRCLE('',#1371,0.001);
#966=CIRCLE('',#1373,0.001);
#967=CIRCLE('',#1375,0.001);
#968=CIRCLE('',#1377,0.00499999999999994);
#969=CIRCLE('',#1379,0.001);
#970=CIRCLE('',#1381,0.0018);
#971=CIRCLE('',#1382,0.0018);
#972=CIRCLE('',#1383,0.0018);
#973=CIRCLE('',#1384,0.0018);
#974=CIRCLE('',#1385,0.0018);
#975=CIRCLE('',#1386,0.0018);
#976=CIRCLE('',#1388,0.0018);
#977=CIRCLE('',#1391,0.0018);
#978=CIRCLE('',#1394,0.0018);
#979=CIRCLE('',#1397,0.0018);
#980=CIRCLE('',#1400,0.0018);
#981=CIRCLE('',#1403,0.0018);
#982=EDGE_LOOP('',(#288));
#983=EDGE_LOOP('',(#289));
#984=EDGE_LOOP('',(#290));
#985=EDGE_LOOP('',(#291));
#986=EDGE_LOOP('',(#292));
#987=EDGE_LOOP('',(#293));
#988=EDGE_LOOP('',(#294,#295,#296,#297,#298,#299,#300,#301,#302,#303,#304,
#305,#306,#307,#308,#309,#310,#311,#312,#313,#314,#315,#316,#317,#318,#319,
#320,#321,#322,#323,#324,#325,#326,#327,#328,#329,#330,#331,#332,#333,#334,
#335,#336,#337,#338,#339,#340,#341,#342,#343));
#989=EDGE_LOOP('',(#344,#345,#346,#347,#348,#349,#350,#351,#352,#353,#354,
#355));
#990=EDGE_LOOP('',(#356,#357,#358,#359));
#991=EDGE_LOOP('',(#360,#361,#362,#363));
#992=EDGE_LOOP('',(#364,#365,#366,#367));
#993=EDGE_LOOP('',(#368,#369,#370,#371));
#994=EDGE_LOOP('',(#372,#373,#374,#375));
#995=EDGE_LOOP('',(#376,#377,#378,#379,#380,#381,#382,#383));
#996=EDGE_LOOP('',(#384,#385,#386,#387));
#997=EDGE_LOOP('',(#388,#389,#390,#391));
#998=EDGE_LOOP('',(#392,#393,#394,#395));
#999=EDGE_LOOP('',(#396,#397,#398,#399));
#1000=EDGE_LOOP('',(#400,#401,#402,#403));
#1001=EDGE_LOOP('',(#404,#405,#406,#407,#408,#409,#410,#411,#412,#413,#414,
#415));
#1002=EDGE_LOOP('',(#416,#417,#418,#419));
#1003=EDGE_LOOP('',(#420,#421,#422,#423));
#1004=EDGE_LOOP('',(#424,#425,#426,#427));
#1005=EDGE_LOOP('',(#428,#429,#430,#431));
#1006=EDGE_LOOP('',(#432,#433,#434,#435));
#1007=EDGE_LOOP('',(#436,#437,#438,#439,#440,#441,#442,#443));
#1008=EDGE_LOOP('',(#444,#445,#446,#447));
#1009=EDGE_LOOP('',(#448,#449,#450,#451));
#1010=EDGE_LOOP('',(#452,#453,#454,#455));
#1011=EDGE_LOOP('',(#456,#457,#458,#459));
#1012=EDGE_LOOP('',(#460,#461,#462,#463));
#1013=EDGE_LOOP('',(#464,#465,#466,#467));
#1014=EDGE_LOOP('',(#468));
#1015=EDGE_LOOP('',(#469));
#1016=EDGE_LOOP('',(#470));
#1017=EDGE_LOOP('',(#471));
#1018=EDGE_LOOP('',(#472));
#1019=EDGE_LOOP('',(#473));
#1020=EDGE_LOOP('',(#474));
#1021=EDGE_LOOP('',(#475));
#1022=EDGE_LOOP('',(#476));
#1023=EDGE_LOOP('',(#477));
#1024=EDGE_LOOP('',(#478,#479,#480,#481));
#1025=EDGE_LOOP('',(#482));
#1026=EDGE_LOOP('',(#483));
#1027=EDGE_LOOP('',(#484,#485,#486,#487,#488,#489,#490,#491,#492,#493,#494,
#495,#496,#497,#498,#499,#500,#501,#502,#503,#504,#505,#506,#507,#508,#509));
#1028=EDGE_LOOP('',(#510));
#1029=EDGE_LOOP('',(#511));
#1030=EDGE_LOOP('',(#512));
#1031=EDGE_LOOP('',(#513));
#1032=EDGE_LOOP('',(#514));
#1033=EDGE_LOOP('',(#515));
#1034=EDGE_LOOP('',(#516));
#1035=EDGE_LOOP('',(#517));
#1036=EDGE_LOOP('',(#518));
#1037=EDGE_LOOP('',(#519));
#1038=EDGE_LOOP('',(#520));
#1039=EDGE_LOOP('',(#521));
#1040=EDGE_LOOP('',(#522));
#1041=EDGE_LOOP('',(#523));
#1042=EDGE_LOOP('',(#524));
#1043=EDGE_LOOP('',(#525));
#1044=EDGE_LOOP('',(#526));
#1045=EDGE_LOOP('',(#527));
#1046=EDGE_LOOP('',(#528));
#1047=EDGE_LOOP('',(#529));
#1048=EDGE_LOOP('',(#530));
#1049=EDGE_LOOP('',(#531));
#1050=EDGE_LOOP('',(#532));
#1051=EDGE_LOOP('',(#533));
#1052=EDGE_LOOP('',(#534));
#1053=EDGE_LOOP('',(#535));
#1054=EDGE_LOOP('',(#536));
#1055=EDGE_LOOP('',(#537));
#1056=EDGE_LOOP('',(#538));
#1057=EDGE_LOOP('',(#539));
#1058=EDGE_LOOP('',(#540,#541,#542,#543));
#1059=EDGE_LOOP('',(#544,#545,#546,#547));
#1060=EDGE_LOOP('',(#548,#549,#550,#551));
#1061=EDGE_LOOP('',(#552,#553,#554,#555));
#1062=EDGE_LOOP('',(#556,#557,#558,#559));
#1063=EDGE_LOOP('',(#560,#561,#562,#563));
#1064=EDGE_LOOP('',(#564,#565,#566,#567));
#1065=EDGE_LOOP('',(#568,#569,#570,#571));
#1066=EDGE_LOOP('',(#572,#573,#574,#575));
#1067=EDGE_LOOP('',(#576,#577,#578,#579));
#1068=EDGE_LOOP('',(#580,#581,#582,#583));
#1069=EDGE_LOOP('',(#584,#585,#586,#587));
#1070=EDGE_LOOP('',(#588,#589,#590,#591));
#1071=EDGE_LOOP('',(#592,#593,#594,#595));
#1072=EDGE_LOOP('',(#596,#597,#598,#599));
#1073=EDGE_LOOP('',(#600,#601,#602,#603));
#1074=EDGE_LOOP('',(#604,#605,#606,#607));
#1075=EDGE_LOOP('',(#608,#609,#610,#611));
#1076=EDGE_LOOP('',(#612,#613,#614,#615));
#1077=EDGE_LOOP('',(#616,#617,#618,#619));
#1078=EDGE_LOOP('',(#620,#621,#622,#623));
#1079=EDGE_LOOP('',(#624,#625,#626,#627));
#1080=EDGE_LOOP('',(#628,#629,#630,#631));
#1081=EDGE_LOOP('',(#632,#633,#634,#635));
#1082=FACE_BOUND('',#982,.T.);
#1083=FACE_BOUND('',#983,.T.);
#1084=FACE_BOUND('',#984,.T.);
#1085=FACE_BOUND('',#985,.T.);
#1086=FACE_BOUND('',#986,.T.);
#1087=FACE_BOUND('',#987,.T.);
#1088=FACE_BOUND('',#988,.T.);
#1089=FACE_BOUND('',#989,.T.);
#1090=FACE_BOUND('',#990,.T.);
#1091=FACE_BOUND('',#991,.T.);
#1092=FACE_BOUND('',#992,.T.);
#1093=FACE_BOUND('',#993,.T.);
#1094=FACE_BOUND('',#994,.T.);
#1095=FACE_BOUND('',#995,.T.);
#1096=FACE_BOUND('',#996,.T.);
#1097=FACE_BOUND('',#997,.T.);
#1098=FACE_BOUND('',#998,.T.);
#1099=FACE_BOUND('',#999,.T.);
#1100=FACE_BOUND('',#1000,.T.);
#1101=FACE_BOUND('',#1001,.T.);
#1102=FACE_BOUND('',#1002,.T.);
#1103=FACE_BOUND('',#1003,.T.);
#1104=FACE_BOUND('',#1004,.T.);
#1105=FACE_BOUND('',#1005,.T.);
#1106=FACE_BOUND('',#1006,.T.);
#1107=FACE_BOUND('',#1007,.T.);
#1108=FACE_BOUND('',#1008,.T.);
#1109=FACE_BOUND('',#1009,.T.);
#1110=FACE_BOUND('',#1010,.T.);
#1111=FACE_BOUND('',#1011,.T.);
#1112=FACE_BOUND('',#1012,.T.);
#1113=FACE_BOUND('',#1013,.T.);
#1114=FACE_BOUND('',#1014,.T.);
#1115=FACE_BOUND('',#1015,.T.);
#1116=FACE_BOUND('',#1016,.T.);
#1117=FACE_BOUND('',#1017,.T.);
#1118=FACE_BOUND('',#1018,.T.);
#1119=FACE_BOUND('',#1019,.T.);
#1120=FACE_BOUND('',#1020,.T.);
#1121=FACE_BOUND('',#1021,.T.);
#1122=FACE_BOUND('',#1022,.T.);
#1123=FACE_BOUND('',#1023,.T.);
#1124=FACE_BOUND('',#1024,.T.);
#1125=FACE_BOUND('',#1025,.T.);
#1126=FACE_BOUND('',#1026,.T.);
#1127=FACE_BOUND('',#1027,.T.);
#1128=FACE_BOUND('',#1028,.T.);
#1129=FACE_BOUND('',#1029,.T.);
#1130=FACE_BOUND('',#1030,.T.);
#1131=FACE_BOUND('',#1031,.T.);
#1132=FACE_BOUND('',#1032,.T.);
#1133=FACE_BOUND('',#1033,.T.);
#1134=FACE_BOUND('',#1034,.T.);
#1135=FACE_BOUND('',#1035,.T.);
#1136=FACE_BOUND('',#1036,.T.);
#1137=FACE_BOUND('',#1037,.T.);
#1138=FACE_BOUND('',#1038,.T.);
#1139=FACE_BOUND('',#1039,.T.);
#1140=FACE_BOUND('',#1040,.T.);
#1141=FACE_BOUND('',#1041,.T.);
#1142=FACE_BOUND('',#1042,.T.);
#1143=FACE_BOUND('',#1043,.T.);
#1144=FACE_BOUND('',#1044,.T.);
#1145=FACE_BOUND('',#1045,.T.);
#1146=FACE_BOUND('',#1046,.T.);
#1147=FACE_BOUND('',#1047,.T.);
#1148=FACE_BOUND('',#1048,.T.);
#1149=FACE_BOUND('',#1049,.T.);
#1150=FACE_BOUND('',#1050,.T.);
#1151=FACE_BOUND('',#1051,.T.);
#1152=FACE_BOUND('',#1052,.T.);
#1153=FACE_BOUND('',#1053,.T.);
#1154=FACE_BOUND('',#1054,.T.);
#1155=FACE_BOUND('',#1055,.T.);
#1156=FACE_BOUND('',#1056,.T.);
#1157=FACE_BOUND('',#1057,.T.);
#1158=FACE_BOUND('',#1058,.T.);
#1159=FACE_BOUND('',#1059,.T.);
#1160=FACE_BOUND('',#1060,.T.);
#1161=FACE_BOUND('',#1061,.T.);
#1162=FACE_BOUND('',#1062,.T.);
#1163=FACE_BOUND('',#1063,.T.);
#1164=FACE_BOUND('',#1064,.T.);
#1165=FACE_BOUND('',#1065,.T.);
#1166=FACE_BOUND('',#1066,.T.);
#1167=FACE_BOUND('',#1067,.T.);
#1168=FACE_BOUND('',#1068,.T.);
#1169=FACE_BOUND('',#1069,.T.);
#1170=FACE_BOUND('',#1070,.T.);
#1171=FACE_BOUND('',#1071,.T.);
#1172=FACE_BOUND('',#1072,.T.);
#1173=FACE_BOUND('',#1073,.T.);
#1174=FACE_BOUND('',#1074,.T.);
#1175=FACE_BOUND('',#1075,.T.);
#1176=FACE_BOUND('',#1076,.T.);
#1177=FACE_BOUND('',#1077,.T.);
#1178=FACE_BOUND('',#1078,.T.);
#1179=FACE_BOUND('',#1079,.T.);
#1180=FACE_BOUND('',#1080,.T.);
#1181=FACE_BOUND('',#1081,.T.);
#1182=PLANE('',#1311);
#1183=PLANE('',#1330);
#1184=PLANE('',#1333);
#1185=PLANE('',#1336);
#1186=PLANE('',#1339);
#1187=PLANE('',#1342);
#1188=PLANE('',#1345);
#1189=PLANE('',#1348);
#1190=PLANE('',#1351);
#1191=PLANE('',#1354);
#1192=PLANE('',#1357);
#1193=PLANE('',#1358);
#1194=PLANE('',#1359);
#1195=PLANE('',#1362);
#1196=PLANE('',#1365);
#1197=PLANE('',#1380);
#1198=PLANE('',#1389);
#1199=PLANE('',#1392);
#1200=PLANE('',#1395);
#1201=PLANE('',#1398);
#1202=PLANE('',#1401);
#1203=PLANE('',#1404);
#1204=PLANE('',#1405);
#1205=PLANE('',#1406);
#1206=PLANE('',#1407);
#1207=PLANE('',#1408);
#1208=PLANE('',#1409);
#1209=PLANE('',#1410);
#1210=PLANE('',#1411);
#1211=PLANE('',#1412);
#1212=PLANE('',#1413);
#1213=PLANE('',#1414);
#1214=PLANE('',#1415);
#1215=PLANE('',#1416);
#1216=PLANE('',#1417);
#1217=PLANE('',#1418);
#1218=PLANE('',#1419);
#1219=PLANE('',#1420);
#1220=PLANE('',#1421);
#1221=PLANE('',#1422);
#1222=PLANE('',#1423);
#1223=PLANE('',#1424);
#1224=PLANE('',#1425);
#1225=PLANE('',#1426);
#1226=PLANE('',#1427);
#1227=PLANE('',#1428);
#1228=ADVANCED_FACE('',(#1082,#1083,#1084,#1085,#1086,#1087,#1088),#1182,
 .T.);
#1229=ADVANCED_FACE('',(#1089),#1183,.T.);
#1230=ADVANCED_FACE('',(#1090),#12,.F.);
#1231=ADVANCED_FACE('',(#1091),#1184,.T.);
#1232=ADVANCED_FACE('',(#1092),#13,.T.);
#1233=ADVANCED_FACE('',(#1093),#1185,.F.);
#1234=ADVANCED_FACE('',(#1094),#14,.F.);
#1235=ADVANCED_FACE('',(#1095),#1186,.F.);
#1236=ADVANCED_FACE('',(#1096),#15,.F.);
#1237=ADVANCED_FACE('',(#1097),#1187,.T.);
#1238=ADVANCED_FACE('',(#1098),#16,.T.);
#1239=ADVANCED_FACE('',(#1099),#1188,.F.);
#1240=ADVANCED_FACE('',(#1100),#17,.F.);
#1241=ADVANCED_FACE('',(#1101),#1189,.T.);
#1242=ADVANCED_FACE('',(#1102),#18,.F.);
#1243=ADVANCED_FACE('',(#1103),#1190,.T.);
#1244=ADVANCED_FACE('',(#1104),#19,.T.);
#1245=ADVANCED_FACE('',(#1105),#1191,.F.);
#1246=ADVANCED_FACE('',(#1106),#20,.F.);
#1247=ADVANCED_FACE('',(#1107),#1192,.F.);
#1248=ADVANCED_FACE('',(#1108),#1193,.T.);
#1249=ADVANCED_FACE('',(#1109),#1194,.T.);
#1250=ADVANCED_FACE('',(#1110),#21,.F.);
#1251=ADVANCED_FACE('',(#1111),#1195,.T.);
#1252=ADVANCED_FACE('',(#1112),#22,.T.);
#1253=ADVANCED_FACE('',(#1113),#1196,.F.);
#1254=ADVANCED_FACE('',(#1114,#1115),#23,.F.);
#1255=ADVANCED_FACE('',(#1116,#1117),#24,.F.);
#1256=ADVANCED_FACE('',(#1118,#1119),#25,.F.);
#1257=ADVANCED_FACE('',(#1120,#1121),#26,.F.);
#1258=ADVANCED_FACE('',(#1122,#1123),#27,.F.);
#1259=ADVANCED_FACE('',(#1124),#28,.F.);
#1260=ADVANCED_FACE('',(#1125,#1126),#29,.F.);
#1261=ADVANCED_FACE('',(#1127,#1128,#1129,#1130,#1131,#1132,#1133),#1197,
 .F.);
#1262=ADVANCED_FACE('',(#1134,#1135),#30,.F.);
#1263=ADVANCED_FACE('',(#1136,#1137),#1198,.F.);
#1264=ADVANCED_FACE('',(#1138,#1139),#31,.F.);
#1265=ADVANCED_FACE('',(#1140,#1141),#1199,.F.);
#1266=ADVANCED_FACE('',(#1142,#1143),#32,.F.);
#1267=ADVANCED_FACE('',(#1144,#1145),#1200,.F.);
#1268=ADVANCED_FACE('',(#1146,#1147),#33,.F.);
#1269=ADVANCED_FACE('',(#1148,#1149),#1201,.F.);
#1270=ADVANCED_FACE('',(#1150,#1151),#34,.F.);
#1271=ADVANCED_FACE('',(#1152,#1153),#1202,.F.);
#1272=ADVANCED_FACE('',(#1154,#1155),#35,.F.);
#1273=ADVANCED_FACE('',(#1156,#1157),#1203,.F.);
#1274=ADVANCED_FACE('',(#1158),#1204,.F.);
#1275=ADVANCED_FACE('',(#1159),#1205,.F.);
#1276=ADVANCED_FACE('',(#1160),#1206,.F.);
#1277=ADVANCED_FACE('',(#1161),#1207,.T.);
#1278=ADVANCED_FACE('',(#1162),#1208,.T.);
#1279=ADVANCED_FACE('',(#1163),#1209,.T.);
#1280=ADVANCED_FACE('',(#1164),#1210,.T.);
#1281=ADVANCED_FACE('',(#1165),#1211,.T.);
#1282=ADVANCED_FACE('',(#1166),#1212,.T.);
#1283=ADVANCED_FACE('',(#1167),#1213,.T.);
#1284=ADVANCED_FACE('',(#1168),#1214,.T.);
#1285=ADVANCED_FACE('',(#1169),#1215,.T.);
#1286=ADVANCED_FACE('',(#1170),#1216,.T.);
#1287=ADVANCED_FACE('',(#1171),#1217,.T.);
#1288=ADVANCED_FACE('',(#1172),#1218,.T.);
#1289=ADVANCED_FACE('',(#1173),#1219,.T.);
#1290=ADVANCED_FACE('',(#1174),#1220,.F.);
#1291=ADVANCED_FACE('',(#1175),#1221,.F.);
#1292=ADVANCED_FACE('',(#1176),#1222,.F.);
#1293=ADVANCED_FACE('',(#1177),#1223,.T.);
#1294=ADVANCED_FACE('',(#1178),#1224,.T.);
#1295=ADVANCED_FACE('',(#1179),#1225,.F.);
#1296=ADVANCED_FACE('',(#1180),#1226,.T.);
#1297=ADVANCED_FACE('',(#1181),#1227,.T.);
#1298=CLOSED_SHELL('',(#1228,#1229,#1230,#1231,#1232,#1233,#1234,#1235,
#1236,#1237,#1238,#1239,#1240,#1241,#1242,#1243,#1244,#1245,#1246,#1247,
#1248,#1249,#1250,#1251,#1252,#1253,#1254,#1255,#1256,#1257,#1258,#1259,
#1260,#1261,#1262,#1263,#1264,#1265,#1266,#1267,#1268,#1269,#1270,#1271,
#1272,#1273,#1274,#1275,#1276,#1277,#1278,#1279,#1280,#1281,#1282,#1283,
#1284,#1285,#1286,#1287,#1288,#1289,#1290,#1291,#1292,#1293,#1294,#1295,
#1296,#1297));
#1299=STYLED_ITEM('',(#1300),#1307);
#1300=PRESENTATION_STYLE_ASSIGNMENT((#1301));
#1301=SURFACE_STYLE_USAGE(.BOTH.,#1302);
#1302=SURFACE_SIDE_STYLE('',(#1303));
#1303=SURFACE_STYLE_FILL_AREA(#1304);
#1304=FILL_AREA_STYLE('',(#1305));
#1305=FILL_AREA_STYLE_COLOUR('',#1306);
#1306=COLOUR_RGB('',0.615686274509804,0.811764705882353,0.929411764705882);
#1307=MANIFOLD_SOLID_BREP('Part 1',#1298);
#1308=SHAPE_DEFINITION_REPRESENTATION(#2168,#1309);
#1309=SHAPE_REPRESENTATION('Part 1',(#1310),#2163);
#1310=AXIS2_PLACEMENT_3D('',#1793,#1429,#1430);
#1311=AXIS2_PLACEMENT_3D('',#1794,#1431,#1432);
#1312=AXIS2_PLACEMENT_3D('',#1795,#1433,#1434);
#1313=AXIS2_PLACEMENT_3D('',#1797,#1435,#1436);
#1314=AXIS2_PLACEMENT_3D('',#1799,#1437,#1438);
#1315=AXIS2_PLACEMENT_3D('',#1801,#1439,#1440);
#1316=AXIS2_PLACEMENT_3D('',#1803,#1441,#1442);
#1317=AXIS2_PLACEMENT_3D('',#1805,#1443,#1444);
#1318=AXIS2_PLACEMENT_3D('',#1818,#1450,#1451);
#1319=AXIS2_PLACEMENT_3D('',#1822,#1453,#1454);
#1320=AXIS2_PLACEMENT_3D('',#1826,#1456,#1457);
#1321=AXIS2_PLACEMENT_3D('',#1846,#1467,#1468);
#1322=AXIS2_PLACEMENT_3D('',#1850,#1470,#1471);
#1323=AXIS2_PLACEMENT_3D('',#1854,#1473,#1474);
#1324=AXIS2_PLACEMENT_3D('',#1870,#1482,#1483);
#1325=AXIS2_PLACEMENT_3D('',#1874,#1485,#1486);
#1326=AXIS2_PLACEMENT_3D('',#1878,#1488,#1489);
#1327=AXIS2_PLACEMENT_3D('',#1898,#1499,#1500);
#1328=AXIS2_PLACEMENT_3D('',#1902,#1502,#1503);
#1329=AXIS2_PLACEMENT_3D('',#1906,#1505,#1506);
#1330=AXIS2_PLACEMENT_3D('',#1907,#1507,#1508);
#1331=AXIS2_PLACEMENT_3D('',#1923,#1518,#1519);
#1332=AXIS2_PLACEMENT_3D('',#1924,#1520,#1521);
#1333=AXIS2_PLACEMENT_3D('',#1927,#1523,#1524);
#1334=AXIS2_PLACEMENT_3D('',#1931,#1527,#1528);
#1335=AXIS2_PLACEMENT_3D('',#1932,#1529,#1530);
#1336=AXIS2_PLACEMENT_3D('',#1935,#1532,#1533);
#1337=AXIS2_PLACEMENT_3D('',#1939,#1536,#1537);
#1338=AXIS2_PLACEMENT_3D('',#1940,#1538,#1539);
#1339=AXIS2_PLACEMENT_3D('',#1943,#1541,#1542);
#1340=AXIS2_PLACEMENT_3D('',#1952,#1548,#1549);
#1341=AXIS2_PLACEMENT_3D('',#1953,#1550,#1551);
#1342=AXIS2_PLACEMENT_3D('',#1956,#1553,#1554);
#1343=AXIS2_PLACEMENT_3D('',#1960,#1557,#1558);
#1344=AXIS2_PLACEMENT_3D('',#1961,#1559,#1560);
#1345=AXIS2_PLACEMENT_3D('',#1964,#1562,#1563);
#1346=AXIS2_PLACEMENT_3D('',#1968,#1566,#1567);
#1347=AXIS2_PLACEMENT_3D('',#1969,#1568,#1569);
#1348=AXIS2_PLACEMENT_3D('',#1972,#1571,#1572);
#1349=AXIS2_PLACEMENT_3D('',#1986,#1581,#1582);
#1350=AXIS2_PLACEMENT_3D('',#1987,#1583,#1584);
#1351=AXIS2_PLACEMENT_3D('',#1990,#1586,#1587);
#1352=AXIS2_PLACEMENT_3D('',#1994,#1590,#1591);
#1353=AXIS2_PLACEMENT_3D('',#1995,#1592,#1593);
#1354=AXIS2_PLACEMENT_3D('',#1998,#1595,#1596);
#1355=AXIS2_PLACEMENT_3D('',#2002,#1599,#1600);
#1356=AXIS2_PLACEMENT_3D('',#2003,#1601,#1602);
#1357=AXIS2_PLACEMENT_3D('',#2006,#1604,#1605);
#1358=AXIS2_PLACEMENT_3D('',#2015,#1611,#1612);
#1359=AXIS2_PLACEMENT_3D('',#2019,#1615,#1616);
#1360=AXIS2_PLACEMENT_3D('',#2023,#1619,#1620);
#1361=AXIS2_PLACEMENT_3D('',#2024,#1621,#1622);
#1362=AXIS2_PLACEMENT_3D('',#2027,#1624,#1625);
#1363=AXIS2_PLACEMENT_3D('',#2031,#1628,#1629);
#1364=AXIS2_PLACEMENT_3D('',#2032,#1630,#1631);
#1365=AXIS2_PLACEMENT_3D('',#2035,#1633,#1634);
#1366=AXIS2_PLACEMENT_3D('',#2039,#1637,#1638);
#1367=AXIS2_PLACEMENT_3D('',#2040,#1639,#1640);
#1368=AXIS2_PLACEMENT_3D('',#2042,#1641,#1642);
#1369=AXIS2_PLACEMENT_3D('',#2043,#1643,#1644);
#1370=AXIS2_PLACEMENT_3D('',#2045,#1645,#1646);
#1371=AXIS2_PLACEMENT_3D('',#2046,#1647,#1648);
#1372=AXIS2_PLACEMENT_3D('',#2048,#1649,#1650);
#1373=AXIS2_PLACEMENT_3D('',#2049,#1651,#1652);
#1374=AXIS2_PLACEMENT_3D('',#2051,#1653,#1654);
#1375=AXIS2_PLACEMENT_3D('',#2052,#1655,#1656);
#1376=AXIS2_PLACEMENT_3D('',#2054,#1657,#1658);
#1377=AXIS2_PLACEMENT_3D('',#2055,#1659,#1660);
#1378=AXIS2_PLACEMENT_3D('',#2056,#1661,#1662);
#1379=AXIS2_PLACEMENT_3D('',#2057,#1663,#1664);
#1380=AXIS2_PLACEMENT_3D('',#2059,#1665,#1666);
#1381=AXIS2_PLACEMENT_3D('',#2060,#1667,#1668);
#1382=AXIS2_PLACEMENT_3D('',#2062,#1669,#1670);
#1383=AXIS2_PLACEMENT_3D('',#2064,#1671,#1672);
#1384=AXIS2_PLACEMENT_3D('',#2066,#1673,#1674);
#1385=AXIS2_PLACEMENT_3D('',#2068,#1675,#1676);
#1386=AXIS2_PLACEMENT_3D('',#2070,#1677,#1678);
#1387=AXIS2_PLACEMENT_3D('',#2072,#1679,#1680);
#1388=AXIS2_PLACEMENT_3D('',#2073,#1681,#1682);
#1389=AXIS2_PLACEMENT_3D('',#2075,#1683,#1684);
#1390=AXIS2_PLACEMENT_3D('',#2076,#1685,#1686);
#1391=AXIS2_PLACEMENT_3D('',#2077,#1687,#1688);
#1392=AXIS2_PLACEMENT_3D('',#2079,#1689,#1690);
#1393=AXIS2_PLACEMENT_3D('',#2080,#1691,#1692);
#1394=AXIS2_PLACEMENT_3D('',#2081,#1693,#1694);
#1395=AXIS2_PLACEMENT_3D('',#2083,#1695,#1696);
#1396=AXIS2_PLACEMENT_3D('',#2084,#1697,#1698);
#1397=AXIS2_PLACEMENT_3D('',#2085,#1699,#1700);
#1398=AXIS2_PLACEMENT_3D('',#2087,#1701,#1702);
#1399=AXIS2_PLACEMENT_3D('',#2088,#1703,#1704);
#1400=AXIS2_PLACEMENT_3D('',#2089,#1705,#1706);
#1401=AXIS2_PLACEMENT_3D('',#2091,#1707,#1708);
#1402=AXIS2_PLACEMENT_3D('',#2092,#1709,#1710);
#1403=AXIS2_PLACEMENT_3D('',#2093,#1711,#1712);
#1404=AXIS2_PLACEMENT_3D('',#2095,#1713,#1714);
#1405=AXIS2_PLACEMENT_3D('',#2096,#1715,#1716);
#1406=AXIS2_PLACEMENT_3D('',#2102,#1720,#1721);
#1407=AXIS2_PLACEMENT_3D('',#2104,#1723,#1724);
#1408=AXIS2_PLACEMENT_3D('',#2106,#1726,#1727);
#1409=AXIS2_PLACEMENT_3D('',#2107,#1728,#1729);
#1410=AXIS2_PLACEMENT_3D('',#2111,#1732,#1733);
#1411=AXIS2_PLACEMENT_3D('',#2115,#1736,#1737);
#1412=AXIS2_PLACEMENT_3D('',#2117,#1739,#1740);
#1413=AXIS2_PLACEMENT_3D('',#2118,#1741,#1742);
#1414=AXIS2_PLACEMENT_3D('',#2122,#1745,#1746);
#1415=AXIS2_PLACEMENT_3D('',#2126,#1749,#1750);
#1416=AXIS2_PLACEMENT_3D('',#2128,#1752,#1753);
#1417=AXIS2_PLACEMENT_3D('',#2129,#1754,#1755);
#1418=AXIS2_PLACEMENT_3D('',#2133,#1758,#1759);
#1419=AXIS2_PLACEMENT_3D('',#2137,#1762,#1763);
#1420=AXIS2_PLACEMENT_3D('',#2139,#1765,#1766);
#1421=AXIS2_PLACEMENT_3D('',#2140,#1767,#1768);
#1422=AXIS2_PLACEMENT_3D('',#2146,#1772,#1773);
#1423=AXIS2_PLACEMENT_3D('',#2148,#1775,#1776);
#1424=AXIS2_PLACEMENT_3D('',#2150,#1778,#1779);
#1425=AXIS2_PLACEMENT_3D('',#2151,#1780,#1781);
#1426=AXIS2_PLACEMENT_3D('',#2157,#1785,#1786);
#1427=AXIS2_PLACEMENT_3D('',#2159,#1788,#1789);
#1428=AXIS2_PLACEMENT_3D('',#2161,#1791,#1792);
#1429=DIRECTION('',(0.,0.,1.));
#1430=DIRECTION('',(1.,0.,0.));
#1431=DIRECTION('',(0.,0.,1.));
#1432=DIRECTION('',(1.,0.,0.));
#1433=DIRECTION('',(0.,0.,1.));
#1434=DIRECTION('',(1.,0.,0.));
#1435=DIRECTION('',(0.,0.,1.));
#1436=DIRECTION('',(1.,0.,0.));
#1437=DIRECTION('',(0.,0.,1.));
#1438=DIRECTION('',(1.,0.,0.));
#1439=DIRECTION('',(0.,0.,1.));
#1440=DIRECTION('',(1.,0.,0.));
#1441=DIRECTION('',(0.,0.,1.));
#1442=DIRECTION('',(1.,0.,0.));
#1443=DIRECTION('',(0.,0.,1.));
#1444=DIRECTION('',(1.,0.,0.));
#1445=DIRECTION('',(2.28656752188284E-14,-1.,0.));
#1446=DIRECTION('',(1.,0.,0.));
#1447=DIRECTION('',(0.,1.,0.));
#1448=DIRECTION('',(1.,0.,0.));
#1449=DIRECTION('',(2.28656752188284E-14,-1.,0.));
#1450=DIRECTION('',(0.,0.,1.));
#1451=DIRECTION('',(1.,0.,0.));
#1452=DIRECTION('',(0.707106781186802,0.707106781186293,0.));
#1453=DIRECTION('',(0.,0.,1.));
#1454=DIRECTION('',(1.,0.,0.));
#1455=DIRECTION('',(0.690384021593891,0.723443088796794,0.));
#1456=DIRECTION('',(0.,0.,1.));
#1457=DIRECTION('',(1.,0.,0.));
#1458=DIRECTION('',(-1.,0.,0.));
#1459=DIRECTION('',(0.,1.,0.));
#1460=DIRECTION('',(1.,0.,0.));
#1461=DIRECTION('',(0.,-1.,0.));
#1462=DIRECTION('',(-1.,0.,0.));
#1463=DIRECTION('',(4.6259292692715E-15,-1.,0.));
#1464=DIRECTION('',(-1.,-8.61974398000898E-17,0.));
#1465=DIRECTION('',(0.,1.,0.));
#1466=DIRECTION('',(-1.,0.,0.));
#1467=DIRECTION('',(0.,0.,1.));
#1468=DIRECTION('',(1.,0.,0.));
#1469=DIRECTION('',(-0.707106781186549,0.707106781186547,0.));
#1470=DIRECTION('',(0.,0.,1.));
#1471=DIRECTION('',(1.,0.,0.));
#1472=DIRECTION('',(-0.725144003853552,0.688597250702644,0.));
#1473=DIRECTION('',(0.,0.,1.));
#1474=DIRECTION('',(1.,0.,0.));
#1475=DIRECTION('',(0.,1.,0.));
#1476=DIRECTION('',(1.,-1.26161707343767E-15,0.));
#1477=DIRECTION('',(8.05407525888401E-16,-1.,0.));
#1478=DIRECTION('',(-1.,0.,0.));
#1479=DIRECTION('',(0.,1.,0.));
#1480=DIRECTION('',(-0.73494892088358,-0.678122469537813,0.));
#1481=DIRECTION('',(0.,-1.,0.));
#1482=DIRECTION('',(0.,0.,1.));
#1483=DIRECTION('',(1.,0.,0.));
#1484=DIRECTION('',(-0.769747491209472,-0.638348493987981,0.));
#1485=DIRECTION('',(0.,0.,1.));
#1486=DIRECTION('',(1.,0.,0.));
#1487=DIRECTION('',(-0.707106781186559,-0.707106781186536,0.));
#1488=DIRECTION('',(0.,0.,1.));
#1489=DIRECTION('',(1.,0.,0.));
#1490=DIRECTION('',(1.,0.,0.));
#1491=DIRECTION('',(0.,1.,0.));
#1492=DIRECTION('',(1.,3.44789759200359E-16,0.));
#1493=DIRECTION('',(0.,-1.,0.));
#1494=DIRECTION('',(1.,0.,0.));
#1495=DIRECTION('',(0.,-1.,0.));
#1496=DIRECTION('',(-1.,-3.44789759200359E-16,0.));
#1497=DIRECTION('',(0.,1.,0.));
#1498=DIRECTION('',(1.,0.,0.));
#1499=DIRECTION('',(0.,0.,1.));
#1500=DIRECTION('',(1.,0.,0.));
#1501=DIRECTION('',(0.707106781186563,-0.707106781186533,0.));
#1502=DIRECTION('',(0.,0.,1.));
#1503=DIRECTION('',(1.,0.,0.));
#1504=DIRECTION('',(0.707106781186566,-0.707106781186529,0.));
#1505=DIRECTION('',(0.,0.,1.));
#1506=DIRECTION('',(1.,0.,0.));
#1507=DIRECTION('',(0.,1.,0.));
#1508=DIRECTION('',(0.,0.,1.));
#1509=DIRECTION('',(0.,0.,-1.));
#1510=DIRECTION('',(1.,0.,0.));
#1511=DIRECTION('',(0.,0.,-1.));
#1512=DIRECTION('',(0.,0.,-1.));
#1513=DIRECTION('',(1.,0.,0.));
#1514=DIRECTION('',(0.,0.,-1.));
#1515=DIRECTION('',(0.,0.,-1.));
#1516=DIRECTION('',(1.,0.,0.));
#1517=DIRECTION('',(0.,0.,-1.));
#1518=DIRECTION('',(0.,0.,-1.));
#1519=DIRECTION('',(-1.,0.,0.));
#1520=DIRECTION('',(0.,0.,1.));
#1521=DIRECTION('',(1.,0.,0.));
#1522=DIRECTION('',(0.,0.,-1.));
#1523=DIRECTION('',(0.707106781186533,0.707106781186562,0.));
#1524=DIRECTION('',(-0.707106781186563,0.707106781186533,0.));
#1525=DIRECTION('',(0.707106781186563,-0.707106781186533,0.));
#1526=DIRECTION('',(0.,0.,-1.));
#1527=DIRECTION('',(0.,0.,-1.));
#1528=DIRECTION('',(-1.,0.,0.));
#1529=DIRECTION('',(0.,0.,1.));
#1530=DIRECTION('',(1.,0.,0.));
#1531=DIRECTION('',(0.,0.,-1.));
#1532=DIRECTION('',(0.707106781186529,0.707106781186566,0.));
#1533=DIRECTION('',(-0.707106781186566,0.707106781186529,0.));
#1534=DIRECTION('',(0.707106781186566,-0.707106781186529,0.));
#1535=DIRECTION('',(0.,0.,-1.));
#1536=DIRECTION('',(0.,0.,-1.));
#1537=DIRECTION('',(-1.,0.,0.));
#1538=DIRECTION('',(0.,0.,1.));
#1539=DIRECTION('',(1.,0.,0.));
#1540=DIRECTION('',(0.,0.,-1.));
#1541=DIRECTION('',(1.,2.28656752188284E-14,0.));
#1542=DIRECTION('',(-2.28656752188284E-14,1.,0.));
#1543=DIRECTION('',(0.,0.,-1.));
#1544=DIRECTION('',(2.33939851617444E-14,-1.,0.));
#1545=DIRECTION('',(0.,0.,-1.));
#1546=DIRECTION('',(2.28656752188284E-14,-1.,0.));
#1547=DIRECTION('',(0.,0.,-1.));
#1548=DIRECTION('',(0.,0.,-1.));
#1549=DIRECTION('',(-1.,0.,0.));
#1550=DIRECTION('',(0.,0.,1.));
#1551=DIRECTION('',(1.,0.,0.));
#1552=DIRECTION('',(0.,0.,-1.));
#1553=DIRECTION('',(-0.707106781186293,0.707106781186802,0.));
#1554=DIRECTION('',(-0.707106781186802,-0.707106781186293,0.));
#1555=DIRECTION('',(0.707106781186802,0.707106781186293,0.));
#1556=DIRECTION('',(0.,0.,-1.));
#1557=DIRECTION('',(0.,0.,-1.));
#1558=DIRECTION('',(-1.,0.,0.));
#1559=DIRECTION('',(0.,0.,1.));
#1560=DIRECTION('',(1.,0.,0.));
#1561=DIRECTION('',(0.,0.,-1.));
#1562=DIRECTION('',(-0.723443088796794,0.690384021593891,0.));
#1563=DIRECTION('',(-0.690384021593891,-0.723443088796794,0.));
#1564=DIRECTION('',(0.690384021593891,0.723443088796794,0.));
#1565=DIRECTION('',(0.,0.,-1.));
#1566=DIRECTION('',(0.,0.,-1.));
#1567=DIRECTION('',(-1.,0.,0.));
#1568=DIRECTION('',(0.,0.,1.));
#1569=DIRECTION('',(1.,0.,0.));
#1570=DIRECTION('',(0.,0.,-1.));
#1571=DIRECTION('',(0.,-1.,0.));
#1572=DIRECTION('',(0.,0.,-1.));
#1573=DIRECTION('',(-1.,0.,0.));
#1574=DIRECTION('',(0.,0.,-1.));
#1575=DIRECTION('',(0.,0.,-1.));
#1576=DIRECTION('',(-1.,-4.30987199000449E-16,0.));
#1577=DIRECTION('',(0.,0.,-1.));
#1578=DIRECTION('',(0.,0.,-1.));
#1579=DIRECTION('',(-1.,-4.30987199000449E-16,0.));
#1580=DIRECTION('',(0.,0.,-1.));
#1581=DIRECTION('',(0.,0.,-1.));
#1582=DIRECTION('',(-1.,0.,0.));
#1583=DIRECTION('',(0.,0.,1.));
#1584=DIRECTION('',(1.,0.,0.));
#1585=DIRECTION('',(0.,0.,-1.));
#1586=DIRECTION('',(-0.707106781186547,-0.707106781186549,0.));
#1587=DIRECTION('',(0.707106781186549,-0.707106781186547,0.));
#1588=DIRECTION('',(-0.707106781186549,0.707106781186547,0.));
#1589=DIRECTION('',(0.,0.,-1.));
#1590=DIRECTION('',(0.,0.,-1.));
#1591=DIRECTION('',(-1.,0.,0.));
#1592=DIRECTION('',(0.,0.,1.));
#1593=DIRECTION('',(1.,0.,0.));
#1594=DIRECTION('',(0.,0.,-1.));
#1595=DIRECTION('',(-0.688597250702644,-0.725144003853552,0.));
#1596=DIRECTION('',(0.725144003853552,-0.688597250702644,0.));
#1597=DIRECTION('',(-0.725144003853552,0.688597250702644,0.));
#1598=DIRECTION('',(0.,0.,-1.));
#1599=DIRECTION('',(0.,0.,-1.));
#1600=DIRECTION('',(-1.,0.,0.));
#1601=DIRECTION('',(0.,0.,1.));
#1602=DIRECTION('',(1.,0.,0.));
#1603=DIRECTION('',(0.,0.,-1.));
#1604=DIRECTION('',(-1.,0.,0.));
#1605=DIRECTION('',(0.,0.,1.));
#1606=DIRECTION('',(0.,0.,-1.));
#1607=DIRECTION('',(0.,1.,0.));
#1608=DIRECTION('',(0.,0.,-1.));
#1609=DIRECTION('',(0.,1.,0.));
#1610=DIRECTION('',(0.,0.,-1.));
#1611=DIRECTION('',(0.678122469537812,-0.73494892088358,0.));
#1612=DIRECTION('',(0.73494892088358,0.678122469537813,0.));
#1613=DIRECTION('',(-0.73494892088358,-0.678122469537813,0.));
#1614=DIRECTION('',(0.,0.,-1.));
#1615=DIRECTION('',(1.,0.,0.));
#1616=DIRECTION('',(0.,0.,-1.));
#1617=DIRECTION('',(0.,-1.,0.));
#1618=DIRECTION('',(0.,0.,-1.));
#1619=DIRECTION('',(0.,0.,-1.));
#1620=DIRECTION('',(-1.,0.,0.));
#1621=DIRECTION('',(0.,0.,1.));
#1622=DIRECTION('',(1.,0.,0.));
#1623=DIRECTION('',(0.,0.,-1.));
#1624=DIRECTION('',(0.638348493987982,-0.769747491209472,0.));
#1625=DIRECTION('',(0.769747491209472,0.638348493987982,0.));
#1626=DIRECTION('',(-0.769747491209472,-0.638348493987981,0.));
#1627=DIRECTION('',(0.,0.,-1.));
#1628=DIRECTION('',(0.,0.,-1.));
#1629=DIRECTION('',(-1.,0.,0.));
#1630=DIRECTION('',(0.,0.,1.));
#1631=DIRECTION('',(1.,0.,0.));
#1632=DIRECTION('',(0.,0.,-1.));
#1633=DIRECTION('',(0.707106781186536,-0.707106781186559,0.));
#1634=DIRECTION('',(0.707106781186559,0.707106781186536,0.));
#1635=DIRECTION('',(-0.707106781186559,-0.707106781186536,0.));
#1636=DIRECTION('',(0.,0.,-1.));
#1637=DIRECTION('',(0.,0.,-1.));
#1638=DIRECTION('',(-1.,0.,0.));
#1639=DIRECTION('',(0.,0.,1.));
#1640=DIRECTION('',(1.,0.,0.));
#1641=DIRECTION('',(0.,0.,-1.));
#1642=DIRECTION('',(-1.,0.,0.));
#1643=DIRECTION('',(0.,0.,1.));
#1644=DIRECTION('',(1.,0.,0.));
#1645=DIRECTION('',(0.,0.,-1.));
#1646=DIRECTION('',(-1.,0.,0.));
#1647=DIRECTION('',(0.,0.,1.));
#1648=DIRECTION('',(1.,0.,0.));
#1649=DIRECTION('',(0.,0.,-1.));
#1650=DIRECTION('',(-1.,0.,0.));
#1651=DIRECTION('',(0.,0.,1.));
#1652=DIRECTION('',(1.,0.,0.));
#1653=DIRECTION('',(0.,0.,-1.));
#1654=DIRECTION('',(-1.,0.,0.));
#1655=DIRECTION('',(0.,0.,1.));
#1656=DIRECTION('',(1.,0.,0.));
#1657=DIRECTION('',(0.,0.,-1.));
#1658=DIRECTION('',(-1.,0.,0.));
#1659=DIRECTION('',(0.,0.,1.));
#1660=DIRECTION('',(1.,0.,0.));
#1661=DIRECTION('',(0.,0.,-1.));
#1662=DIRECTION('',(-1.,0.,0.));
#1663=DIRECTION('',(0.,0.,1.));
#1664=DIRECTION('',(1.,0.,0.));
#1665=DIRECTION('',(0.,0.,1.));
#1666=DIRECTION('',(1.,0.,0.));
#1667=DIRECTION('',(0.,0.,1.));
#1668=DIRECTION('',(1.,0.,0.));
#1669=DIRECTION('',(0.,0.,1.));
#1670=DIRECTION('',(1.,0.,0.));
#1671=DIRECTION('',(0.,0.,1.));
#1672=DIRECTION('',(1.,0.,0.));
#1673=DIRECTION('',(0.,0.,1.));
#1674=DIRECTION('',(1.,0.,0.));
#1675=DIRECTION('',(0.,0.,1.));
#1676=DIRECTION('',(1.,0.,0.));
#1677=DIRECTION('',(0.,0.,1.));
#1678=DIRECTION('',(1.,0.,0.));
#1679=DIRECTION('',(0.,0.,-1.));
#1680=DIRECTION('',(-1.,0.,0.));
#1681=DIRECTION('',(0.,0.,1.));
#1682=DIRECTION('',(1.,0.,0.));
#1683=DIRECTION('',(0.,0.,1.));
#1684=DIRECTION('',(1.,0.,0.));
#1685=DIRECTION('',(0.,0.,-1.));
#1686=DIRECTION('',(-1.,0.,0.));
#1687=DIRECTION('',(0.,0.,1.));
#1688=DIRECTION('',(1.,0.,0.));
#1689=DIRECTION('',(0.,0.,1.));
#1690=DIRECTION('',(1.,0.,0.));
#1691=DIRECTION('',(0.,0.,-1.));
#1692=DIRECTION('',(-1.,0.,0.));
#1693=DIRECTION('',(0.,0.,1.));
#1694=DIRECTION('',(1.,0.,0.));
#1695=DIRECTION('',(0.,0.,1.));
#1696=DIRECTION('',(1.,0.,0.));
#1697=DIRECTION('',(0.,0.,-1.));
#1698=DIRECTION('',(-1.,0.,0.));
#1699=DIRECTION('',(0.,0.,1.));
#1700=DIRECTION('',(1.,0.,0.));
#1701=DIRECTION('',(0.,0.,1.));
#1702=DIRECTION('',(1.,0.,0.));
#1703=DIRECTION('',(0.,0.,-1.));
#1704=DIRECTION('',(-1.,0.,0.));
#1705=DIRECTION('',(0.,0.,1.));
#1706=DIRECTION('',(1.,0.,0.));
#1707=DIRECTION('',(0.,0.,1.));
#1708=DIRECTION('',(1.,0.,0.));
#1709=DIRECTION('',(0.,0.,-1.));
#1710=DIRECTION('',(-1.,0.,0.));
#1711=DIRECTION('',(0.,0.,1.));
#1712=DIRECTION('',(1.,0.,0.));
#1713=DIRECTION('',(0.,0.,1.));
#1714=DIRECTION('',(1.,0.,0.));
#1715=DIRECTION('',(-3.44789759200359E-16,1.,0.));
#1716=DIRECTION('',(-1.,-3.44789759200359E-16,0.));
#1717=DIRECTION('',(0.,0.,-1.));
#1718=DIRECTION('',(1.,3.44789759200359E-16,0.));
#1719=DIRECTION('',(0.,0.,-1.));
#1720=DIRECTION('',(-1.,0.,0.));
#1721=DIRECTION('',(0.,0.,1.));
#1722=DIRECTION('',(0.,1.,0.));
#1723=DIRECTION('',(1.,0.,0.));
#1724=DIRECTION('',(0.,0.,-1.));
#1725=DIRECTION('',(0.,-1.,0.));
#1726=DIRECTION('',(0.,0.,1.));
#1727=DIRECTION('',(1.,0.,0.));
#1728=DIRECTION('',(-1.,0.,0.));
#1729=DIRECTION('',(0.,0.,1.));
#1730=DIRECTION('',(0.,0.,-1.));
#1731=DIRECTION('',(0.,1.,0.));
#1732=DIRECTION('',(3.44789759200359E-16,-1.,0.));
#1733=DIRECTION('',(1.,3.44789759200359E-16,0.));
#1734=DIRECTION('',(0.,0.,-1.));
#1735=DIRECTION('',(-1.,-3.44789759200359E-16,0.));
#1736=DIRECTION('',(1.,0.,0.));
#1737=DIRECTION('',(0.,0.,-1.));
#1738=DIRECTION('',(0.,-1.,0.));
#1739=DIRECTION('',(0.,0.,1.));
#1740=DIRECTION('',(1.,0.,0.));
#1741=DIRECTION('',(0.,1.,0.));
#1742=DIRECTION('',(0.,0.,1.));
#1743=DIRECTION('',(0.,0.,-1.));
#1744=DIRECTION('',(1.,0.,0.));
#1745=DIRECTION('',(-1.,-8.05407525888401E-16,0.));
#1746=DIRECTION('',(8.05407525888401E-16,-1.,0.));
#1747=DIRECTION('',(0.,0.,-1.));
#1748=DIRECTION('',(-8.05407525888401E-16,1.,0.));
#1749=DIRECTION('',(-1.26161707343767E-15,-1.,0.));
#1750=DIRECTION('',(1.,-1.26161707343767E-15,0.));
#1751=DIRECTION('',(-1.,1.26161707343767E-15,0.));
#1752=DIRECTION('',(0.,0.,1.));
#1753=DIRECTION('',(1.,0.,0.));
#1754=DIRECTION('',(1.,0.,0.));
#1755=DIRECTION('',(0.,0.,-1.));
#1756=DIRECTION('',(0.,0.,-1.));
#1757=DIRECTION('',(0.,-1.,0.));
#1758=DIRECTION('',(-8.61974398000898E-17,1.,0.));
#1759=DIRECTION('',(-1.,-8.61974398000898E-17,0.));
#1760=DIRECTION('',(0.,0.,-1.));
#1761=DIRECTION('',(1.,8.61974398000898E-17,0.));
#1762=DIRECTION('',(-1.,-4.6259292692715E-15,0.));
#1763=DIRECTION('',(4.6259292692715E-15,-1.,0.));
#1764=DIRECTION('',(-4.6259292692715E-15,1.,0.));
#1765=DIRECTION('',(0.,0.,1.));
#1766=DIRECTION('',(1.,0.,0.));
#1767=DIRECTION('',(0.,-1.,0.));
#1768=DIRECTION('',(0.,0.,-1.));
#1769=DIRECTION('',(0.,0.,-1.));
#1770=DIRECTION('',(-1.,0.,0.));
#1771=DIRECTION('',(0.,0.,-1.));
#1772=DIRECTION('',(1.,0.,0.));
#1773=DIRECTION('',(0.,0.,-1.));
#1774=DIRECTION('',(0.,-1.,0.));
#1775=DIRECTION('',(-1.,0.,0.));
#1776=DIRECTION('',(0.,0.,1.));
#1777=DIRECTION('',(0.,1.,0.));
#1778=DIRECTION('',(0.,0.,1.));
#1779=DIRECTION('',(1.,0.,0.));
#1780=DIRECTION('',(1.,0.,0.));
#1781=DIRECTION('',(0.,0.,-1.));
#1782=DIRECTION('',(0.,0.,-1.));
#1783=DIRECTION('',(0.,0.,-1.));
#1784=DIRECTION('',(0.,-1.,0.));
#1785=DIRECTION('',(0.,-1.,0.));
#1786=DIRECTION('',(0.,0.,-1.));
#1787=DIRECTION('',(-1.,0.,0.));
#1788=DIRECTION('',(0.,-1.,0.));
#1789=DIRECTION('',(0.,0.,-1.));
#1790=DIRECTION('',(-1.,0.,0.));
#1791=DIRECTION('',(0.,0.,1.));
#1792=DIRECTION('',(1.,0.,0.));
#1793=CARTESIAN_POINT('',(0.,0.,0.));
#1794=CARTESIAN_POINT('',(0.0018716877760179,0.0266105394657148,0.003));
#1795=CARTESIAN_POINT('',(-0.119045724814143,-0.0191977121536243,0.003));
#1796=CARTESIAN_POINT('',(-0.118045724814143,-0.0191977121536243,0.003));
#1797=CARTESIAN_POINT('',(-0.119045724814143,0.0724187910850537,0.003));
#1798=CARTESIAN_POINT('',(-0.118045724814143,0.0724187910850537,0.003));
#1799=CARTESIAN_POINT('',(-0.00658022481414327,0.0692187910850538,0.003));
#1800=CARTESIAN_POINT('',(-0.00558022481414327,0.0692187910850538,0.003));
#1801=CARTESIAN_POINT('',(0.122789100366179,0.0724187910850539,0.003));
#1802=CARTESIAN_POINT('',(0.123789100366179,0.0724187910850539,0.003));
#1803=CARTESIAN_POINT('',(0.105885275185857,-0.0191977121536242,0.003));
#1804=CARTESIAN_POINT('',(0.106885275185857,-0.0191977121536242,0.003));
#1805=CARTESIAN_POINT('',(-0.00658022481414326,-0.0159727121536242,0.003));
#1806=CARTESIAN_POINT('',(-0.00558022481414326,-0.0159727121536242,0.003));
#1807=CARTESIAN_POINT('',(-0.118045724814143,0.0642948727261546,0.003));
#1808=CARTESIAN_POINT('',(-0.118045724814143,0.0658121893672555,0.003));
#1809=CARTESIAN_POINT('',(-0.118045724814143,0.0627775560850538,0.003));
#1810=CARTESIAN_POINT('',(0.0018716877760179,0.0627775560850538,0.003));
#1811=CARTESIAN_POINT('',(-0.112545724814143,0.0627775560850538,0.003));
#1812=CARTESIAN_POINT('',(-0.112545724814143,0.0266105394657148,0.003));
#1813=CARTESIAN_POINT('',(-0.112545724814143,-0.00722244391494624,0.003));
#1814=CARTESIAN_POINT('',(0.0018716877760179,-0.00722244391494624,0.003));
#1815=CARTESIAN_POINT('',(-0.118045724814141,-0.00722244391494624,0.003));
#1816=CARTESIAN_POINT('',(-0.118045724814143,0.0642948727261546,0.003));
#1817=CARTESIAN_POINT('',(-0.118045724814141,-0.0125911104358249,0.003));
#1818=CARTESIAN_POINT('',(-0.123045724814141,-0.012591110435825,0.003));
#1819=CARTESIAN_POINT('',(-0.11951019090821,-0.0161266443417591,0.003));
#1820=CARTESIAN_POINT('',(-0.120161841337659,-0.016778294771208,0.003));
#1821=CARTESIAN_POINT('',(-0.12081349176711,-0.0174299452006585,0.003));
#1822=CARTESIAN_POINT('',(-0.119045724814143,-0.0191977121536243,0.003));
#1823=CARTESIAN_POINT('',(-0.117237117092151,-0.020923672207609,0.003));
#1824=CARTESIAN_POINT('',(-0.116675089715182,-0.0203347321266319,0.003));
#1825=CARTESIAN_POINT('',(-0.116113062338213,-0.0197457920456548,0.003));
#1826=CARTESIAN_POINT('',(-0.112495846894229,-0.0231977121536244,0.003));
#1827=CARTESIAN_POINT('',(-0.112495846894229,-0.0181977121536243,0.003));
#1828=CARTESIAN_POINT('',(-0.0197082248141433,-0.0181977121536242,0.003));
#1829=CARTESIAN_POINT('',(-0.100408224814143,-0.0181977121536243,0.003));
#1830=CARTESIAN_POINT('',(-0.100408224814143,0.0266105394657148,0.003));
#1831=CARTESIAN_POINT('',(-0.100408224814143,-0.0126977121536243,0.003));
#1832=CARTESIAN_POINT('',(0.0018716877760179,-0.0126977121536243,0.003));
#1833=CARTESIAN_POINT('',(-0.0199082248141433,-0.0126977121536243,0.003));
#1834=CARTESIAN_POINT('',(-0.0199082248141433,0.0266105394657148,0.003));
#1835=CARTESIAN_POINT('',(-0.0199082248141433,-0.0181977121536242,0.003));
#1836=CARTESIAN_POINT('',(-0.0197082248141433,-0.0181977121536242,0.003));
#1837=CARTESIAN_POINT('',(0.00674777518585673,-0.0181977121536242,0.003));
#1838=CARTESIAN_POINT('',(0.00674777518585653,0.0266105394657148,0.003));
#1839=CARTESIAN_POINT('',(0.00674777518585671,-0.0126977121536242,0.003));
#1840=CARTESIAN_POINT('',(0.00187168777601791,-0.0126977121536242,0.003));
#1841=CARTESIAN_POINT('',(0.0872477751858568,-0.0126977121536242,0.003));
#1842=CARTESIAN_POINT('',(0.0872477751858568,0.0266105394657148,0.003));
#1843=CARTESIAN_POINT('',(0.0872477751858568,-0.0181977121536242,0.003));
#1844=CARTESIAN_POINT('',(-0.0197082248141433,-0.0181977121536242,0.003));
#1845=CARTESIAN_POINT('',(0.0992786734680585,-0.0181977121536241,0.003));
#1846=CARTESIAN_POINT('',(0.0992786734680585,-0.0231977121536242,0.003));
#1847=CARTESIAN_POINT('',(0.102814207373991,-0.0196621782476914,0.003));
#1848=CARTESIAN_POINT('',(0.103465857803441,-0.020313828677141,0.003));
#1849=CARTESIAN_POINT('',(0.10411750823289,-0.0209654791065906,0.003));
#1850=CARTESIAN_POINT('',(0.105885275185857,-0.0191977121536242,0.003));
#1851=CARTESIAN_POINT('',(0.107606768312613,-0.0173848521439903,0.003));
#1852=CARTESIAN_POINT('',(0.107024528622478,-0.0168319569290451,0.003));
#1853=CARTESIAN_POINT('',(0.106442288932343,-0.0162790617140998,0.003));
#1854=CARTESIAN_POINT('',(0.109885275185857,-0.0126533416948321,0.003));
#1855=CARTESIAN_POINT('',(0.104885275185857,-0.0126533416948321,0.003));
#1856=CARTESIAN_POINT('',(0.104885275185857,-0.0111049110251491,0.003));
#1857=CARTESIAN_POINT('',(0.104885275185857,-0.00955648035546607,0.003));
#1858=CARTESIAN_POINT('',(0.00187168777601786,-0.00955648035546595,0.003));
#1859=CARTESIAN_POINT('',(0.0993852751858567,-0.00955648035546607,0.003));
#1860=CARTESIAN_POINT('',(0.0993852751858567,0.0266105394657149,0.003));
#1861=CARTESIAN_POINT('',(0.0993852751858567,0.0249050496445339,0.003));
#1862=CARTESIAN_POINT('',(0.0018716877760179,0.0249050496445339,0.003));
#1863=CARTESIAN_POINT('',(0.104885275185857,0.0249050496445339,0.003));
#1864=CARTESIAN_POINT('',(0.104885275185857,-0.0111049110251491,0.003));
#1865=CARTESIAN_POINT('',(0.104885275185857,0.0265099742856842,0.003));
#1866=CARTESIAN_POINT('',(0.113337187776018,0.0343083826853689,0.003));
#1867=CARTESIAN_POINT('',(0.121789100366179,0.0421067910850538,0.003));
#1868=CARTESIAN_POINT('',(0.121789100366179,0.0540496555564951,0.003));
#1869=CARTESIAN_POINT('',(0.121789100366179,0.0659925200279365,0.003));
#1870=CARTESIAN_POINT('',(0.126789100366179,0.0659925200279365,0.003));
#1871=CARTESIAN_POINT('',(0.123597357896239,0.0698412574839839,0.003));
#1872=CARTESIAN_POINT('',(0.123991164748694,0.070167839920507,0.003));
#1873=CARTESIAN_POINT('',(0.124384971601149,0.0704944223570301,0.003));
#1874=CARTESIAN_POINT('',(0.122789100366179,0.0724187910850538,0.003));
#1875=CARTESIAN_POINT('',(0.121021333413213,0.0741865580380202,0.003));
#1876=CARTESIAN_POINT('',(0.120369682983763,0.0735349076085705,0.003));
#1877=CARTESIAN_POINT('',(0.119718032554313,0.072883257179121,0.003));
#1878=CARTESIAN_POINT('',(0.116182498648381,0.0764187910850537,0.003));
#1879=CARTESIAN_POINT('',(0.116182498648381,0.0714187910850538,0.003));
#1880=CARTESIAN_POINT('',(0.0960665251858567,0.0714187910850538,0.003));
#1881=CARTESIAN_POINT('',(0.0872477751858567,0.0714187910850538,0.003));
#1882=CARTESIAN_POINT('',(0.0872477751858567,0.0266105394657148,0.003));
#1883=CARTESIAN_POINT('',(0.0872477751858567,0.0659187910850538,0.003));
#1884=CARTESIAN_POINT('',(0.00187168777601789,0.0659187910850538,0.003));
#1885=CARTESIAN_POINT('',(0.00674777518585673,0.0659187910850538,0.003));
#1886=CARTESIAN_POINT('',(0.00674777518585673,0.0266105394657148,0.003));
#1887=CARTESIAN_POINT('',(0.00674777518585673,0.0714187910850538,0.003));
#1888=CARTESIAN_POINT('',(0.0960665251858567,0.0714187910850538,0.003));
#1889=CARTESIAN_POINT('',(-0.0199082248141433,0.0714187910850538,0.003));
#1890=CARTESIAN_POINT('',(-0.0199082248141433,0.0266105394657148,0.003));
#1891=CARTESIAN_POINT('',(-0.0199082248141433,0.0659187910850538,0.003));
#1892=CARTESIAN_POINT('',(0.00187168777601789,0.0659187910850538,0.003));
#1893=CARTESIAN_POINT('',(-0.100408224814143,0.0659187910850538,0.003));
#1894=CARTESIAN_POINT('',(-0.100408224814143,0.0266105394657148,0.003));
#1895=CARTESIAN_POINT('',(-0.100408224814143,0.0714187910850538,0.003));
#1896=CARTESIAN_POINT('',(0.0960665251858567,0.0714187910850538,0.003));
#1897=CARTESIAN_POINT('',(-0.112439123096345,0.0714187910850538,0.003));
#1898=CARTESIAN_POINT('',(-0.112439123096345,0.0764187910850539,0.003));
#1899=CARTESIAN_POINT('',(-0.115974657002278,0.072883257179121,0.003));
#1900=CARTESIAN_POINT('',(-0.116626307431727,0.0735349076085706,0.003));
#1901=CARTESIAN_POINT('',(-0.117277957861177,0.0741865580380201,0.003));
#1902=CARTESIAN_POINT('',(-0.119045724814143,0.0724187910850537,0.003));
#1903=CARTESIAN_POINT('',(-0.12081349176711,0.0706510241320873,0.003));
#1904=CARTESIAN_POINT('',(-0.12016184133766,0.0699993737026378,0.003));
#1905=CARTESIAN_POINT('',(-0.11951019090821,0.0693477232731882,0.003));
#1906=CARTESIAN_POINT('',(-0.123045724814143,0.0658121893672554,0.003));
#1907=CARTESIAN_POINT('',(0.0960665251858567,0.0714187910850538,0.003));
#1908=CARTESIAN_POINT('',(0.116182498648381,0.0714187910850538,0.003));
#1909=CARTESIAN_POINT('',(0.116182498648381,0.0714187910850538,0.));
#1910=CARTESIAN_POINT('',(0.0960665251858567,0.0714187910850538,0.));
#1911=CARTESIAN_POINT('',(-0.112439123096345,0.0714187910850538,0.));
#1912=CARTESIAN_POINT('',(-0.112439123096345,0.0714187910850538,0.003));
#1913=CARTESIAN_POINT('',(-0.100408224814143,0.0714187910850538,0.008));
#1914=CARTESIAN_POINT('',(-0.100408224814143,0.0714187910850538,0.008));
#1915=CARTESIAN_POINT('',(-0.0601582248141433,0.0714187910850538,0.008));
#1916=CARTESIAN_POINT('',(-0.0199082248141433,0.0714187910850538,0.008));
#1917=CARTESIAN_POINT('',(-0.0199082248141433,0.0714187910850538,0.008));
#1918=CARTESIAN_POINT('',(0.00674777518585673,0.0714187910850538,0.008));
#1919=CARTESIAN_POINT('',(0.00674777518585673,0.0714187910850538,0.008));
#1920=CARTESIAN_POINT('',(0.0469977751858567,0.0714187910850538,0.008));
#1921=CARTESIAN_POINT('',(0.0872477751858567,0.0714187910850538,0.008));
#1922=CARTESIAN_POINT('',(0.0872477751858567,0.0714187910850538,0.008));
#1923=CARTESIAN_POINT('',(-0.112439123096345,0.0764187910850539,0.003));
#1924=CARTESIAN_POINT('',(-0.112439123096345,0.0764187910850539,0.));
#1925=CARTESIAN_POINT('',(-0.115974657002278,0.072883257179121,0.));
#1926=CARTESIAN_POINT('',(-0.115974657002278,0.072883257179121,0.003));
#1927=CARTESIAN_POINT('',(-0.116626307431727,0.0735349076085706,0.003));
#1928=CARTESIAN_POINT('',(-0.116626307431727,0.0735349076085706,0.));
#1929=CARTESIAN_POINT('',(-0.117277957861177,0.0741865580380201,0.));
#1930=CARTESIAN_POINT('',(-0.117277957861177,0.0741865580380201,0.003));
#1931=CARTESIAN_POINT('',(-0.119045724814143,0.0724187910850537,0.003));
#1932=CARTESIAN_POINT('',(-0.119045724814143,0.0724187910850537,0.));
#1933=CARTESIAN_POINT('',(-0.12081349176711,0.0706510241320873,0.));
#1934=CARTESIAN_POINT('',(-0.12081349176711,0.0706510241320873,0.003));
#1935=CARTESIAN_POINT('',(-0.12016184133766,0.0699993737026378,0.003));
#1936=CARTESIAN_POINT('',(-0.12016184133766,0.0699993737026378,0.));
#1937=CARTESIAN_POINT('',(-0.11951019090821,0.0693477232731882,0.));
#1938=CARTESIAN_POINT('',(-0.11951019090821,0.0693477232731882,0.003));
#1939=CARTESIAN_POINT('',(-0.123045724814143,0.0658121893672554,0.003));
#1940=CARTESIAN_POINT('',(-0.123045724814143,0.0658121893672554,0.));
#1941=CARTESIAN_POINT('',(-0.118045724814143,0.0658121893672555,0.));
#1942=CARTESIAN_POINT('',(-0.118045724814143,0.0658121893672555,0.003));
#1943=CARTESIAN_POINT('',(-0.118045724814143,0.0642948727261546,0.003));
#1944=CARTESIAN_POINT('',(-0.118045724814141,-0.00722244391494624,0.008));
#1945=CARTESIAN_POINT('',(-0.118045724814141,-0.00722244391494624,0.008));
#1946=CARTESIAN_POINT('',(-0.118045724814142,0.0277775560850537,0.008));
#1947=CARTESIAN_POINT('',(-0.118045724814143,0.0627775560850538,0.008));
#1948=CARTESIAN_POINT('',(-0.118045724814143,0.0627775560850538,0.008));
#1949=CARTESIAN_POINT('',(-0.118045724814143,0.0642948727261546,0.));
#1950=CARTESIAN_POINT('',(-0.118045724814141,-0.0125911104358249,0.));
#1951=CARTESIAN_POINT('',(-0.118045724814141,-0.0125911104358249,0.003));
#1952=CARTESIAN_POINT('',(-0.123045724814141,-0.012591110435825,0.003));
#1953=CARTESIAN_POINT('',(-0.123045724814141,-0.012591110435825,0.));
#1954=CARTESIAN_POINT('',(-0.11951019090821,-0.0161266443417591,0.));
#1955=CARTESIAN_POINT('',(-0.11951019090821,-0.0161266443417591,0.003));
#1956=CARTESIAN_POINT('',(-0.120161841337659,-0.016778294771208,0.003));
#1957=CARTESIAN_POINT('',(-0.120161841337659,-0.016778294771208,0.));
#1958=CARTESIAN_POINT('',(-0.12081349176711,-0.0174299452006585,0.));
#1959=CARTESIAN_POINT('',(-0.12081349176711,-0.0174299452006585,0.003));
#1960=CARTESIAN_POINT('',(-0.119045724814143,-0.0191977121536243,0.003));
#1961=CARTESIAN_POINT('',(-0.119045724814143,-0.0191977121536243,0.));
#1962=CARTESIAN_POINT('',(-0.117237117092151,-0.020923672207609,0.));
#1963=CARTESIAN_POINT('',(-0.117237117092151,-0.020923672207609,0.003));
#1964=CARTESIAN_POINT('',(-0.116675089715182,-0.0203347321266319,0.003));
#1965=CARTESIAN_POINT('',(-0.116675089715182,-0.0203347321266319,0.));
#1966=CARTESIAN_POINT('',(-0.116113062338213,-0.0197457920456548,0.));
#1967=CARTESIAN_POINT('',(-0.116113062338213,-0.0197457920456548,0.003));
#1968=CARTESIAN_POINT('',(-0.112495846894229,-0.0231977121536244,0.003));
#1969=CARTESIAN_POINT('',(-0.112495846894229,-0.0231977121536244,0.));
#1970=CARTESIAN_POINT('',(-0.112495846894229,-0.0181977121536243,0.));
#1971=CARTESIAN_POINT('',(-0.112495846894229,-0.0181977121536243,0.003));
#1972=CARTESIAN_POINT('',(-0.0197082248141433,-0.0181977121536242,0.003));
#1973=CARTESIAN_POINT('',(-0.0197082248141433,-0.0181977121536242,0.));
#1974=CARTESIAN_POINT('',(0.0992786734680585,-0.0181977121536241,0.));
#1975=CARTESIAN_POINT('',(0.0992786734680585,-0.0181977121536241,0.003));
#1976=CARTESIAN_POINT('',(0.0872477751858568,-0.0181977121536241,0.008));
#1977=CARTESIAN_POINT('',(0.0872477751858568,-0.0181977121536241,0.008));
#1978=CARTESIAN_POINT('',(0.0469977751858567,-0.0181977121536242,0.008));
#1979=CARTESIAN_POINT('',(0.00674777518585673,-0.0181977121536242,0.008));
#1980=CARTESIAN_POINT('',(0.00674777518585673,-0.0181977121536242,0.008));
#1981=CARTESIAN_POINT('',(-0.0199082248141433,-0.0181977121536242,0.008));
#1982=CARTESIAN_POINT('',(-0.0199082248141433,-0.0181977121536242,0.008));
#1983=CARTESIAN_POINT('',(-0.0601582248141433,-0.0181977121536243,0.008));
#1984=CARTESIAN_POINT('',(-0.100408224814143,-0.0181977121536243,0.008));
#1985=CARTESIAN_POINT('',(-0.100408224814143,-0.0181977121536243,0.008));
#1986=CARTESIAN_POINT('',(0.0992786734680585,-0.0231977121536242,0.003));
#1987=CARTESIAN_POINT('',(0.0992786734680585,-0.0231977121536242,0.));
#1988=CARTESIAN_POINT('',(0.102814207373991,-0.0196621782476914,0.));
#1989=CARTESIAN_POINT('',(0.102814207373991,-0.0196621782476914,0.003));
#1990=CARTESIAN_POINT('',(0.103465857803441,-0.020313828677141,0.003));
#1991=CARTESIAN_POINT('',(0.103465857803441,-0.020313828677141,0.));
#1992=CARTESIAN_POINT('',(0.10411750823289,-0.0209654791065906,0.));
#1993=CARTESIAN_POINT('',(0.10411750823289,-0.0209654791065906,0.003));
#1994=CARTESIAN_POINT('',(0.105885275185857,-0.0191977121536242,0.003));
#1995=CARTESIAN_POINT('',(0.105885275185857,-0.0191977121536242,0.));
#1996=CARTESIAN_POINT('',(0.107606768312613,-0.0173848521439903,0.));
#1997=CARTESIAN_POINT('',(0.107606768312613,-0.0173848521439903,0.003));
#1998=CARTESIAN_POINT('',(0.107024528622478,-0.0168319569290451,0.003));
#1999=CARTESIAN_POINT('',(0.107024528622478,-0.0168319569290451,0.));
#2000=CARTESIAN_POINT('',(0.106442288932343,-0.0162790617140998,0.));
#2001=CARTESIAN_POINT('',(0.106442288932343,-0.0162790617140998,0.003));
#2002=CARTESIAN_POINT('',(0.109885275185857,-0.0126533416948321,0.003));
#2003=CARTESIAN_POINT('',(0.109885275185857,-0.0126533416948321,0.));
#2004=CARTESIAN_POINT('',(0.104885275185857,-0.0126533416948321,0.));
#2005=CARTESIAN_POINT('',(0.104885275185857,-0.0126533416948321,0.003));
#2006=CARTESIAN_POINT('',(0.104885275185857,-0.0111049110251491,0.003));
#2007=CARTESIAN_POINT('',(0.104885275185857,0.0249050496445339,0.008));
#2008=CARTESIAN_POINT('',(0.104885275185857,0.0249050496445339,0.008));
#2009=CARTESIAN_POINT('',(0.104885275185857,0.00767428464453393,0.008));
#2010=CARTESIAN_POINT('',(0.104885275185857,-0.00955648035546607,0.008));
#2011=CARTESIAN_POINT('',(0.104885275185857,-0.00955648035546607,0.008));
#2012=CARTESIAN_POINT('',(0.104885275185857,-0.0111049110251491,0.));
#2013=CARTESIAN_POINT('',(0.104885275185857,0.0265099742856842,0.));
#2014=CARTESIAN_POINT('',(0.104885275185857,0.0265099742856842,0.003));
#2015=CARTESIAN_POINT('',(0.113337187776018,0.0343083826853689,0.003));
#2016=CARTESIAN_POINT('',(0.113337187776018,0.0343083826853689,0.));
#2017=CARTESIAN_POINT('',(0.121789100366179,0.0421067910850538,0.));
#2018=CARTESIAN_POINT('',(0.121789100366179,0.0421067910850538,0.003));
#2019=CARTESIAN_POINT('',(0.121789100366179,0.0540496555564951,0.003));
#2020=CARTESIAN_POINT('',(0.121789100366179,0.0540496555564951,0.));
#2021=CARTESIAN_POINT('',(0.121789100366179,0.0659925200279365,0.));
#2022=CARTESIAN_POINT('',(0.121789100366179,0.0659925200279365,0.003));
#2023=CARTESIAN_POINT('',(0.126789100366179,0.0659925200279365,0.003));
#2024=CARTESIAN_POINT('',(0.126789100366179,0.0659925200279365,0.));
#2025=CARTESIAN_POINT('',(0.123597357896239,0.0698412574839839,0.));
#2026=CARTESIAN_POINT('',(0.123597357896239,0.0698412574839839,0.003));
#2027=CARTESIAN_POINT('',(0.123991164748694,0.070167839920507,0.003));
#2028=CARTESIAN_POINT('',(0.123991164748694,0.070167839920507,0.));
#2029=CARTESIAN_POINT('',(0.124384971601149,0.0704944223570301,0.));
#2030=CARTESIAN_POINT('',(0.124384971601149,0.0704944223570301,0.003));
#2031=CARTESIAN_POINT('',(0.122789100366179,0.0724187910850538,0.003));
#2032=CARTESIAN_POINT('',(0.122789100366179,0.0724187910850538,0.));
#2033=CARTESIAN_POINT('',(0.121021333413213,0.0741865580380202,0.));
#2034=CARTESIAN_POINT('',(0.121021333413213,0.0741865580380202,0.003));
#2035=CARTESIAN_POINT('',(0.120369682983763,0.0735349076085705,0.003));
#2036=CARTESIAN_POINT('',(0.120369682983763,0.0735349076085705,0.));
#2037=CARTESIAN_POINT('',(0.119718032554313,0.072883257179121,0.));
#2038=CARTESIAN_POINT('',(0.119718032554313,0.072883257179121,0.003));
#2039=CARTESIAN_POINT('',(0.105885275185857,-0.0191977121536242,0.003));
#2040=CARTESIAN_POINT('',(0.105885275185857,-0.0191977121536242,0.0015));
#2041=CARTESIAN_POINT('',(0.106885275185857,-0.0191977121536242,0.0015));
#2042=CARTESIAN_POINT('',(0.122789100366179,0.0724187910850539,0.003));
#2043=CARTESIAN_POINT('',(0.122789100366179,0.0724187910850539,0.0015));
#2044=CARTESIAN_POINT('',(0.123789100366179,0.0724187910850539,0.0015));
#2045=CARTESIAN_POINT('',(-0.00658022481414327,0.0692187910850538,0.003));
#2046=CARTESIAN_POINT('',(-0.00658022481414327,0.0692187910850538,0.0015));
#2047=CARTESIAN_POINT('',(-0.00558022481414327,0.0692187910850538,0.0015));
#2048=CARTESIAN_POINT('',(-0.119045724814143,0.0724187910850537,0.003));
#2049=CARTESIAN_POINT('',(-0.119045724814143,0.0724187910850537,0.0015));
#2050=CARTESIAN_POINT('',(-0.118045724814143,0.0724187910850537,0.0015));
#2051=CARTESIAN_POINT('',(-0.119045724814143,-0.0191977121536243,0.003));
#2052=CARTESIAN_POINT('',(-0.119045724814143,-0.0191977121536243,0.0015));
#2053=CARTESIAN_POINT('',(-0.118045724814143,-0.0191977121536243,0.0015));
#2054=CARTESIAN_POINT('',(0.116182498648381,0.0764187910850537,0.003));
#2055=CARTESIAN_POINT('',(0.116182498648381,0.0764187910850537,0.));
#2056=CARTESIAN_POINT('',(-0.00658022481414326,-0.0159727121536242,0.003));
#2057=CARTESIAN_POINT('',(-0.00658022481414326,-0.0159727121536242,0.0015));
#2058=CARTESIAN_POINT('',(-0.00558022481414326,-0.0159727121536242,0.0015));
#2059=CARTESIAN_POINT('',(0.0018716877760179,0.0266105394657148,0.));
#2060=CARTESIAN_POINT('',(0.105885275185857,-0.0191977121536242,0.));
#2061=CARTESIAN_POINT('',(0.107685275185857,-0.0191977121536242,0.));
#2062=CARTESIAN_POINT('',(-0.00658022481414326,-0.0159727121536242,0.));
#2063=CARTESIAN_POINT('',(-0.00478022481414326,-0.0159727121536242,0.));
#2064=CARTESIAN_POINT('',(0.122789100366179,0.0724187910850538,0.));
#2065=CARTESIAN_POINT('',(0.124589100366179,0.0724187910850538,0.));
#2066=CARTESIAN_POINT('',(-0.119045724814143,0.0724187910850537,0.));
#2067=CARTESIAN_POINT('',(-0.117245724814143,0.0724187910850537,0.));
#2068=CARTESIAN_POINT('',(-0.00658022481414327,0.0691937910850538,0.));
#2069=CARTESIAN_POINT('',(-0.00478022481414327,0.0691937910850538,0.));
#2070=CARTESIAN_POINT('',(-0.119045724814143,-0.0191977121536243,0.));
#2071=CARTESIAN_POINT('',(-0.117245724814143,-0.0191977121536243,0.));
#2072=CARTESIAN_POINT('',(-0.119045724814143,-0.0191977121536243,0.0015));
#2073=CARTESIAN_POINT('',(-0.119045724814143,-0.0191977121536243,0.0015));
#2074=CARTESIAN_POINT('',(-0.117245724814143,-0.0191977121536243,0.0015));
#2075=CARTESIAN_POINT('',(0.0018716877760179,0.0266105394657148,0.0015));
#2076=CARTESIAN_POINT('',(-0.00658022481414327,0.0691937910850538,0.0015));
#2077=CARTESIAN_POINT('',(-0.00658022481414327,0.0691937910850538,0.0015));
#2078=CARTESIAN_POINT('',(-0.00478022481414327,0.0691937910850538,0.0015));
#2079=CARTESIAN_POINT('',(0.0018716877760179,0.0266105394657148,0.0015));
#2080=CARTESIAN_POINT('',(-0.119045724814143,0.0724187910850537,0.0015));
#2081=CARTESIAN_POINT('',(-0.119045724814143,0.0724187910850537,0.0015));
#2082=CARTESIAN_POINT('',(-0.117245724814143,0.0724187910850537,0.0015));
#2083=CARTESIAN_POINT('',(0.0018716877760179,0.0266105394657148,0.0015));
#2084=CARTESIAN_POINT('',(0.122789100366179,0.0724187910850538,0.0015));
#2085=CARTESIAN_POINT('',(0.122789100366179,0.0724187910850538,0.0015));
#2086=CARTESIAN_POINT('',(0.124589100366179,0.0724187910850538,0.0015));
#2087=CARTESIAN_POINT('',(0.0018716877760179,0.0266105394657148,0.0015));
#2088=CARTESIAN_POINT('',(-0.00658022481414326,-0.0159727121536242,0.0015));
#2089=CARTESIAN_POINT('',(-0.00658022481414326,-0.0159727121536242,0.0015));
#2090=CARTESIAN_POINT('',(-0.00478022481414326,-0.0159727121536242,0.0015));
#2091=CARTESIAN_POINT('',(0.0018716877760179,0.0266105394657148,0.0015));
#2092=CARTESIAN_POINT('',(0.105885275185857,-0.0191977121536242,0.0015));
#2093=CARTESIAN_POINT('',(0.105885275185857,-0.0191977121536242,0.0015));
#2094=CARTESIAN_POINT('',(0.107685275185857,-0.0191977121536242,0.0015));
#2095=CARTESIAN_POINT('',(0.0018716877760179,0.0266105394657148,0.0015));
#2096=CARTESIAN_POINT('',(-0.0601582248141433,0.0659187910850538,0.008));
#2097=CARTESIAN_POINT('',(-0.0199082248141433,0.0659187910850538,0.008));
#2098=CARTESIAN_POINT('',(-0.0199082248141433,0.0659187910850538,0.008));
#2099=CARTESIAN_POINT('',(-0.0601582248141433,0.0659187910850538,0.008));
#2100=CARTESIAN_POINT('',(-0.100408224814143,0.0659187910850538,0.008));
#2101=CARTESIAN_POINT('',(-0.100408224814143,0.0659187910850538,0.008));
#2102=CARTESIAN_POINT('',(-0.0199082248141433,0.0686687910850538,0.008));
#2103=CARTESIAN_POINT('',(-0.0199082248141433,0.0686687910850538,0.008));
#2104=CARTESIAN_POINT('',(-0.100408224814143,0.0686687910850538,0.008));
#2105=CARTESIAN_POINT('',(-0.100408224814143,0.0686687910850538,0.008));
#2106=CARTESIAN_POINT('',(0.0018716877760179,0.0266105394657148,0.008));
#2107=CARTESIAN_POINT('',(0.00674777518585673,0.0686687910850538,0.008));
#2108=CARTESIAN_POINT('',(0.00674777518585673,0.0659187910850538,0.008));
#2109=CARTESIAN_POINT('',(0.00674777518585673,0.0659187910850538,0.008));
#2110=CARTESIAN_POINT('',(0.00674777518585673,0.0686687910850538,0.008));
#2111=CARTESIAN_POINT('',(0.0469977751858567,0.0659187910850538,0.008));
#2112=CARTESIAN_POINT('',(0.0872477751858567,0.0659187910850538,0.008));
#2113=CARTESIAN_POINT('',(0.0872477751858567,0.0659187910850538,0.008));
#2114=CARTESIAN_POINT('',(0.0469977751858567,0.0659187910850538,0.008));
#2115=CARTESIAN_POINT('',(0.0872477751858567,0.0686687910850538,0.008));
#2116=CARTESIAN_POINT('',(0.0872477751858567,0.0686687910850538,0.008));
#2117=CARTESIAN_POINT('',(0.0018716877760179,0.0266105394657148,0.008));
#2118=CARTESIAN_POINT('',(0.102135275185857,0.0249050496445339,0.008));
#2119=CARTESIAN_POINT('',(0.0993852751858567,0.0249050496445339,0.008));
#2120=CARTESIAN_POINT('',(0.0993852751858567,0.0249050496445339,0.008));
#2121=CARTESIAN_POINT('',(0.102135275185857,0.0249050496445339,0.008));
#2122=CARTESIAN_POINT('',(0.0993852751858567,0.00767428464453393,0.008));
#2123=CARTESIAN_POINT('',(0.0993852751858567,-0.00955648035546607,0.008));
#2124=CARTESIAN_POINT('',(0.0993852751858567,-0.00955648035546607,0.008));
#2125=CARTESIAN_POINT('',(0.0993852751858567,0.00767428464453393,0.008));
#2126=CARTESIAN_POINT('',(0.102135275185857,-0.00955648035546607,0.008));
#2127=CARTESIAN_POINT('',(0.102135275185857,-0.00955648035546607,0.008));
#2128=CARTESIAN_POINT('',(0.0018716877760179,0.0266105394657148,0.008));
#2129=CARTESIAN_POINT('',(0.0872477751858568,-0.0154477121536242,0.008));
#2130=CARTESIAN_POINT('',(0.0872477751858568,-0.0126977121536242,0.008));
#2131=CARTESIAN_POINT('',(0.0872477751858568,-0.0126977121536242,0.008));
#2132=CARTESIAN_POINT('',(0.0872477751858568,-0.0154477121536242,0.008));
#2133=CARTESIAN_POINT('',(0.0469977751858567,-0.0126977121536242,0.008));
#2134=CARTESIAN_POINT('',(0.00674777518585671,-0.0126977121536242,0.008));
#2135=CARTESIAN_POINT('',(0.00674777518585671,-0.0126977121536242,0.008));
#2136=CARTESIAN_POINT('',(0.0469977751858567,-0.0126977121536242,0.008));
#2137=CARTESIAN_POINT('',(0.00674777518585672,-0.0149477121536242,0.008));
#2138=CARTESIAN_POINT('',(0.00674777518585672,-0.0149477121536242,0.008));
#2139=CARTESIAN_POINT('',(0.0018716877760179,0.0266105394657148,0.008));
#2140=CARTESIAN_POINT('',(-0.0601582248141433,-0.0126977121536243,0.008));
#2141=CARTESIAN_POINT('',(-0.100408224814143,-0.0126977121536243,0.008));
#2142=CARTESIAN_POINT('',(-0.100408224814143,-0.0126977121536243,0.008));
#2143=CARTESIAN_POINT('',(-0.0601582248141433,-0.0126977121536243,0.008));
#2144=CARTESIAN_POINT('',(-0.0199082248141433,-0.0126977121536243,0.008));
#2145=CARTESIAN_POINT('',(-0.0199082248141433,-0.0126977121536243,0.008));
#2146=CARTESIAN_POINT('',(-0.100408224814143,-0.0154477121536243,0.008));
#2147=CARTESIAN_POINT('',(-0.100408224814143,-0.0154477121536243,0.008));
#2148=CARTESIAN_POINT('',(-0.0199082248141433,-0.0154477121536243,0.008));
#2149=CARTESIAN_POINT('',(-0.0199082248141433,-0.0154477121536243,0.008));
#2150=CARTESIAN_POINT('',(0.0018716877760179,0.0266105394657148,0.008));
#2151=CARTESIAN_POINT('',(-0.112545724814143,0.0277775560850537,0.008));
#2152=CARTESIAN_POINT('',(-0.112545724814143,-0.00722244391494624,0.008));
#2153=CARTESIAN_POINT('',(-0.112545724814143,-0.00722244391494624,0.008));
#2154=CARTESIAN_POINT('',(-0.112545724814143,0.0627775560850538,0.008));
#2155=CARTESIAN_POINT('',(-0.112545724814143,0.0627775560850538,0.008));
#2156=CARTESIAN_POINT('',(-0.112545724814143,0.0277775560850537,0.008));
#2157=CARTESIAN_POINT('',(-0.115295724814143,0.0627775560850538,0.008));
#2158=CARTESIAN_POINT('',(-0.115295724814143,0.0627775560850538,0.008));
#2159=CARTESIAN_POINT('',(-0.115295724814142,-0.00722244391494624,0.008));
#2160=CARTESIAN_POINT('',(-0.115295724814142,-0.00722244391494624,0.008));
#2161=CARTESIAN_POINT('',(0.0018716877760179,0.0266105394657148,0.008));
#2162=MECHANICAL_DESIGN_GEOMETRIC_PRESENTATION_REPRESENTATION('',(#1299),
#2163);
#2163=(
GEOMETRIC_REPRESENTATION_CONTEXT(3)
GLOBAL_UNCERTAINTY_ASSIGNED_CONTEXT((#2164))
GLOBAL_UNIT_ASSIGNED_CONTEXT((#2167,#2166,#2165))
REPRESENTATION_CONTEXT('Part 1','TOP_LEVEL_ASSEMBLY_PART')
);
#2164=UNCERTAINTY_MEASURE_WITH_UNIT(LENGTH_MEASURE(1.E-8),#2167,
'DISTANCE_ACCURACY_VALUE','Maximum Tolerance applied to model');
#2165=(
NAMED_UNIT(*)
SI_UNIT($,.STERADIAN.)
SOLID_ANGLE_UNIT()
);
#2166=(
NAMED_UNIT(*)
PLANE_ANGLE_UNIT()
SI_UNIT($,.RADIAN.)
);
#2167=(
LENGTH_UNIT()
NAMED_UNIT(*)
SI_UNIT($,.METRE.)
);
#2168=PRODUCT_DEFINITION_SHAPE('','',#2169);
#2169=PRODUCT_DEFINITION('','',#2171,#2170);
#2170=PRODUCT_DEFINITION_CONTEXT('',#2177,'design');
#2171=PRODUCT_DEFINITION_FORMATION_WITH_SPECIFIED_SOURCE('','',#2173,
 .NOT_KNOWN.);
#2172=PRODUCT_RELATED_PRODUCT_CATEGORY('','',(#2173));
#2173=PRODUCT('Part 1','Part 1','Part 1',(#2175));
#2174=PRODUCT_CATEGORY('','');
#2175=PRODUCT_CONTEXT('',#2177,'mechanical');
#2176=APPLICATION_PROTOCOL_DEFINITION('international standard',
'ap242_managed_model_based_3d_engineering',2020,#2177);
#2177=APPLICATION_CONTEXT('managed model based 3d engineering');
ENDSEC;
END-ISO-10303-21;
