ISO-10303-21;
HEADER;
/* Generated by software containing ST-Developer
 * from STEP Tools, Inc. (www.steptools.com) 
 */
/* OPTION: using custom renumber hook */

FILE_DESCRIPTION(
/* description */ ('STEP AP242 Edition 2',
'CAx-IF Rec.Pracs.---Representation and Presentation of Product Manufa
cturing Information (PMI)---4.0---2014-10-13',
'CAx-IF Rec.Pracs.---3D Tessellated Geometry---0.4---2014-09-14','2;1',
'CAx-IF Rec.Pracs.---User Defined Attributes---1.5---2016-08-15'),
/* implementation_level */ '2;1');

FILE_NAME(
/* name */ 'Knob',
/* time_stamp */ '2026-04-20T05:33:47Z',
/* author */ (''),
/* organization */ (''),
/* preprocessor_version */ 'ST-DEVELOPER v20',
/* originating_system */ 'ONSHAPE BY PTC INC, 1.213',
/* authorisation */ '  ');

FILE_SCHEMA (('AP242_MANAGED_MODEL_BASED_3D_ENGINEERING_MIM_LF { 1 0 10303 442 3 1 4 }'));
ENDSEC;

DATA;
#10=SHAPE_REPRESENTATION_RELATIONSHIP('','',#481,#11);
#11=ADVANCED_BREP_SHAPE_REPRESENTATION('',(#479),#773);
#12=TOROIDAL_SURFACE('',#495,0.004,0.002);
#13=TOROIDAL_SURFACE('',#496,0.0055,0.0005);
#14=CYLINDRICAL_SURFACE('',#486,0.006);
#15=CYLINDRICAL_SURFACE('',#491,0.0031);
#16=LINE('',#651,#70);
#17=LINE('',#658,#71);
#18=LINE('',#661,#72);
#19=LINE('',#663,#73);
#20=LINE('',#665,#74);
#21=LINE('',#667,#75);
#22=LINE('',#669,#76);
#23=LINE('',#671,#77);
#24=LINE('',#673,#78);
#25=LINE('',#675,#79);
#26=LINE('',#677,#80);
#27=LINE('',#681,#81);
#28=LINE('',#685,#82);
#29=LINE('',#687,#83);
#30=LINE('',#692,#84);
#31=LINE('',#695,#85);
#32=LINE('',#697,#86);
#33=LINE('',#699,#87);
#34=LINE('',#701,#88);
#35=LINE('',#703,#89);
#36=LINE('',#705,#90);
#37=LINE('',#707,#91);
#38=LINE('',#709,#92);
#39=LINE('',#711,#93);
#40=LINE('',#713,#94);
#41=LINE('',#715,#95);
#42=LINE('',#717,#96);
#43=LINE('',#719,#97);
#44=LINE('',#721,#98);
#45=LINE('',#723,#99);
#46=LINE('',#725,#100);
#47=LINE('',#727,#101);
#48=LINE('',#729,#102);
#49=LINE('',#731,#103);
#50=LINE('',#733,#104);
#51=LINE('',#735,#105);
#52=LINE('',#737,#106);
#53=LINE('',#739,#107);
#54=LINE('',#741,#108);
#55=LINE('',#743,#109);
#56=LINE('',#745,#110);
#57=LINE('',#747,#111);
#58=LINE('',#749,#112);
#59=LINE('',#750,#113);
#60=LINE('',#753,#114);
#61=LINE('',#754,#115);
#62=LINE('',#756,#116);
#63=LINE('',#758,#117);
#64=LINE('',#760,#118);
#65=LINE('',#762,#119);
#66=LINE('',#764,#120);
#67=LINE('',#766,#121);
#68=LINE('',#768,#122);
#69=LINE('',#770,#123);
#70=VECTOR('',#526,1.);
#71=VECTOR('',#535,1.);
#72=VECTOR('',#536,1.);
#73=VECTOR('',#537,1.);
#74=VECTOR('',#538,1.);
#75=VECTOR('',#539,1.);
#76=VECTOR('',#540,1.);
#77=VECTOR('',#541,1.);
#78=VECTOR('',#542,1.);
#79=VECTOR('',#543,1.);
#80=VECTOR('',#544,1.);
#81=VECTOR('',#549,1.);
#82=VECTOR('',#552,1.);
#83=VECTOR('',#555,1.);
#84=VECTOR('',#564,1.);
#85=VECTOR('',#565,1.);
#86=VECTOR('',#566,1.);
#87=VECTOR('',#567,1.);
#88=VECTOR('',#570,1.);
#89=VECTOR('',#571,1.);
#90=VECTOR('',#572,1.);
#91=VECTOR('',#575,1.);
#92=VECTOR('',#576,1.);
#93=VECTOR('',#577,1.);
#94=VECTOR('',#580,1.);
#95=VECTOR('',#581,1.);
#96=VECTOR('',#582,1.);
#97=VECTOR('',#585,1.);
#98=VECTOR('',#586,1.);
#99=VECTOR('',#587,1.);
#100=VECTOR('',#590,1.);
#101=VECTOR('',#591,1.);
#102=VECTOR('',#592,1.);
#103=VECTOR('',#595,1.);
#104=VECTOR('',#596,1.);
#105=VECTOR('',#597,1.);
#106=VECTOR('',#600,1.);
#107=VECTOR('',#601,1.);
#108=VECTOR('',#602,1.);
#109=VECTOR('',#605,1.);
#110=VECTOR('',#606,1.);
#111=VECTOR('',#607,1.);
#112=VECTOR('',#610,1.);
#113=VECTOR('',#611,1.);
#114=VECTOR('',#616,1.);
#115=VECTOR('',#617,1.);
#116=VECTOR('',#620,1.);
#117=VECTOR('',#623,1.);
#118=VECTOR('',#626,1.);
#119=VECTOR('',#629,1.);
#120=VECTOR('',#632,1.);
#121=VECTOR('',#635,1.);
#122=VECTOR('',#638,1.);
#123=VECTOR('',#641,1.);
#124=ORIENTED_EDGE('',*,*,#244,.T.);
#125=ORIENTED_EDGE('',*,*,#245,.T.);
#126=ORIENTED_EDGE('',*,*,#246,.T.);
#127=ORIENTED_EDGE('',*,*,#247,.T.);
#128=ORIENTED_EDGE('',*,*,#248,.T.);
#129=ORIENTED_EDGE('',*,*,#249,.T.);
#130=ORIENTED_EDGE('',*,*,#250,.T.);
#131=ORIENTED_EDGE('',*,*,#251,.T.);
#132=ORIENTED_EDGE('',*,*,#252,.T.);
#133=ORIENTED_EDGE('',*,*,#253,.T.);
#134=ORIENTED_EDGE('',*,*,#254,.T.);
#135=ORIENTED_EDGE('',*,*,#255,.T.);
#136=ORIENTED_EDGE('',*,*,#256,.T.);
#137=ORIENTED_EDGE('',*,*,#257,.T.);
#138=ORIENTED_EDGE('',*,*,#258,.T.);
#139=ORIENTED_EDGE('',*,*,#259,.T.);
#140=ORIENTED_EDGE('',*,*,#245,.F.);
#141=ORIENTED_EDGE('',*,*,#260,.F.);
#142=ORIENTED_EDGE('',*,*,#261,.T.);
#143=ORIENTED_EDGE('',*,*,#262,.T.);
#144=ORIENTED_EDGE('',*,*,#246,.F.);
#145=ORIENTED_EDGE('',*,*,#262,.F.);
#146=ORIENTED_EDGE('',*,*,#263,.T.);
#147=ORIENTED_EDGE('',*,*,#260,.T.);
#148=ORIENTED_EDGE('',*,*,#261,.F.);
#149=ORIENTED_EDGE('',*,*,#263,.F.);
#150=ORIENTED_EDGE('',*,*,#248,.F.);
#151=ORIENTED_EDGE('',*,*,#259,.F.);
#152=ORIENTED_EDGE('',*,*,#244,.F.);
#153=ORIENTED_EDGE('',*,*,#247,.F.);
#154=ORIENTED_EDGE('',*,*,#264,.T.);
#155=ORIENTED_EDGE('',*,*,#265,.T.);
#156=ORIENTED_EDGE('',*,*,#266,.F.);
#157=ORIENTED_EDGE('',*,*,#267,.F.);
#158=ORIENTED_EDGE('',*,*,#266,.T.);
#159=ORIENTED_EDGE('',*,*,#268,.T.);
#160=ORIENTED_EDGE('',*,*,#269,.F.);
#161=ORIENTED_EDGE('',*,*,#270,.T.);
#162=ORIENTED_EDGE('',*,*,#269,.T.);
#163=ORIENTED_EDGE('',*,*,#271,.T.);
#164=ORIENTED_EDGE('',*,*,#272,.F.);
#165=ORIENTED_EDGE('',*,*,#273,.T.);
#166=ORIENTED_EDGE('',*,*,#272,.T.);
#167=ORIENTED_EDGE('',*,*,#274,.T.);
#168=ORIENTED_EDGE('',*,*,#275,.F.);
#169=ORIENTED_EDGE('',*,*,#276,.F.);
#170=ORIENTED_EDGE('',*,*,#275,.T.);
#171=ORIENTED_EDGE('',*,*,#277,.T.);
#172=ORIENTED_EDGE('',*,*,#278,.F.);
#173=ORIENTED_EDGE('',*,*,#279,.F.);
#174=ORIENTED_EDGE('',*,*,#278,.T.);
#175=ORIENTED_EDGE('',*,*,#280,.T.);
#176=ORIENTED_EDGE('',*,*,#281,.F.);
#177=ORIENTED_EDGE('',*,*,#282,.T.);
#178=ORIENTED_EDGE('',*,*,#281,.T.);
#179=ORIENTED_EDGE('',*,*,#283,.T.);
#180=ORIENTED_EDGE('',*,*,#284,.F.);
#181=ORIENTED_EDGE('',*,*,#285,.T.);
#182=ORIENTED_EDGE('',*,*,#284,.T.);
#183=ORIENTED_EDGE('',*,*,#286,.T.);
#184=ORIENTED_EDGE('',*,*,#287,.F.);
#185=ORIENTED_EDGE('',*,*,#288,.T.);
#186=ORIENTED_EDGE('',*,*,#287,.T.);
#187=ORIENTED_EDGE('',*,*,#289,.T.);
#188=ORIENTED_EDGE('',*,*,#290,.F.);
#189=ORIENTED_EDGE('',*,*,#291,.F.);
#190=ORIENTED_EDGE('',*,*,#290,.T.);
#191=ORIENTED_EDGE('',*,*,#292,.T.);
#192=ORIENTED_EDGE('',*,*,#264,.F.);
#193=ORIENTED_EDGE('',*,*,#293,.F.);
#194=ORIENTED_EDGE('',*,*,#267,.T.);
#195=ORIENTED_EDGE('',*,*,#270,.F.);
#196=ORIENTED_EDGE('',*,*,#273,.F.);
#197=ORIENTED_EDGE('',*,*,#276,.T.);
#198=ORIENTED_EDGE('',*,*,#279,.T.);
#199=ORIENTED_EDGE('',*,*,#282,.F.);
#200=ORIENTED_EDGE('',*,*,#285,.F.);
#201=ORIENTED_EDGE('',*,*,#288,.F.);
#202=ORIENTED_EDGE('',*,*,#291,.T.);
#203=ORIENTED_EDGE('',*,*,#293,.T.);
#204=ORIENTED_EDGE('',*,*,#294,.F.);
#205=ORIENTED_EDGE('',*,*,#255,.F.);
#206=ORIENTED_EDGE('',*,*,#295,.F.);
#207=ORIENTED_EDGE('',*,*,#280,.F.);
#208=ORIENTED_EDGE('',*,*,#295,.T.);
#209=ORIENTED_EDGE('',*,*,#254,.F.);
#210=ORIENTED_EDGE('',*,*,#296,.F.);
#211=ORIENTED_EDGE('',*,*,#283,.F.);
#212=ORIENTED_EDGE('',*,*,#294,.T.);
#213=ORIENTED_EDGE('',*,*,#277,.F.);
#214=ORIENTED_EDGE('',*,*,#297,.F.);
#215=ORIENTED_EDGE('',*,*,#256,.F.);
#216=ORIENTED_EDGE('',*,*,#296,.T.);
#217=ORIENTED_EDGE('',*,*,#253,.F.);
#218=ORIENTED_EDGE('',*,*,#298,.F.);
#219=ORIENTED_EDGE('',*,*,#286,.F.);
#220=ORIENTED_EDGE('',*,*,#297,.T.);
#221=ORIENTED_EDGE('',*,*,#274,.F.);
#222=ORIENTED_EDGE('',*,*,#299,.F.);
#223=ORIENTED_EDGE('',*,*,#257,.F.);
#224=ORIENTED_EDGE('',*,*,#298,.T.);
#225=ORIENTED_EDGE('',*,*,#252,.F.);
#226=ORIENTED_EDGE('',*,*,#300,.F.);
#227=ORIENTED_EDGE('',*,*,#289,.F.);
#228=ORIENTED_EDGE('',*,*,#299,.T.);
#229=ORIENTED_EDGE('',*,*,#271,.F.);
#230=ORIENTED_EDGE('',*,*,#301,.F.);
#231=ORIENTED_EDGE('',*,*,#258,.F.);
#232=ORIENTED_EDGE('',*,*,#300,.T.);
#233=ORIENTED_EDGE('',*,*,#251,.F.);
#234=ORIENTED_EDGE('',*,*,#302,.F.);
#235=ORIENTED_EDGE('',*,*,#292,.F.);
#236=ORIENTED_EDGE('',*,*,#301,.T.);
#237=ORIENTED_EDGE('',*,*,#268,.F.);
#238=ORIENTED_EDGE('',*,*,#303,.F.);
#239=ORIENTED_EDGE('',*,*,#249,.F.);
#240=ORIENTED_EDGE('',*,*,#302,.T.);
#241=ORIENTED_EDGE('',*,*,#250,.F.);
#242=ORIENTED_EDGE('',*,*,#303,.T.);
#243=ORIENTED_EDGE('',*,*,#265,.F.);
#244=EDGE_CURVE('',#304,#304,#342,.F.);
#245=EDGE_CURVE('',#305,#306,#343,.T.);
#246=EDGE_CURVE('',#306,#305,#16,.T.);
#247=EDGE_CURVE('',#307,#307,#344,.T.);
#248=EDGE_CURVE('',#308,#308,#345,.F.);
#249=EDGE_CURVE('',#309,#310,#17,.T.);
#250=EDGE_CURVE('',#310,#311,#18,.T.);
#251=EDGE_CURVE('',#311,#312,#19,.T.);
#252=EDGE_CURVE('',#312,#313,#20,.T.);
#253=EDGE_CURVE('',#313,#314,#21,.T.);
#254=EDGE_CURVE('',#314,#315,#22,.T.);
#255=EDGE_CURVE('',#315,#316,#23,.T.);
#256=EDGE_CURVE('',#316,#317,#24,.T.);
#257=EDGE_CURVE('',#317,#318,#25,.T.);
#258=EDGE_CURVE('',#318,#309,#26,.T.);
#259=EDGE_CURVE('',#319,#319,#346,.T.);
#260=EDGE_CURVE('',#320,#305,#27,.T.);
#261=EDGE_CURVE('',#320,#321,#347,.T.);
#262=EDGE_CURVE('',#321,#306,#28,.T.);
#263=EDGE_CURVE('',#321,#320,#29,.T.);
#264=EDGE_CURVE('',#322,#323,#30,.T.);
#265=EDGE_CURVE('',#323,#324,#31,.T.);
#266=EDGE_CURVE('',#325,#324,#32,.T.);
#267=EDGE_CURVE('',#322,#325,#33,.T.);
#268=EDGE_CURVE('',#324,#326,#34,.T.);
#269=EDGE_CURVE('',#327,#326,#35,.T.);
#270=EDGE_CURVE('',#327,#325,#36,.T.);
#271=EDGE_CURVE('',#326,#328,#37,.T.);
#272=EDGE_CURVE('',#329,#328,#38,.T.);
#273=EDGE_CURVE('',#329,#327,#39,.T.);
#274=EDGE_CURVE('',#328,#330,#40,.T.);
#275=EDGE_CURVE('',#331,#330,#41,.T.);
#276=EDGE_CURVE('',#329,#331,#42,.T.);
#277=EDGE_CURVE('',#330,#332,#43,.T.);
#278=EDGE_CURVE('',#333,#332,#44,.T.);
#279=EDGE_CURVE('',#331,#333,#45,.T.);
#280=EDGE_CURVE('',#332,#334,#46,.T.);
#281=EDGE_CURVE('',#335,#334,#47,.T.);
#282=EDGE_CURVE('',#335,#333,#48,.T.);
#283=EDGE_CURVE('',#334,#336,#49,.T.);
#284=EDGE_CURVE('',#337,#336,#50,.T.);
#285=EDGE_CURVE('',#337,#335,#51,.T.);
#286=EDGE_CURVE('',#336,#338,#52,.T.);
#287=EDGE_CURVE('',#339,#338,#53,.T.);
#288=EDGE_CURVE('',#339,#337,#54,.T.);
#289=EDGE_CURVE('',#338,#340,#55,.T.);
#290=EDGE_CURVE('',#341,#340,#56,.T.);
#291=EDGE_CURVE('',#339,#341,#57,.T.);
#292=EDGE_CURVE('',#340,#323,#58,.T.);
#293=EDGE_CURVE('',#341,#322,#59,.T.);
#294=EDGE_CURVE('',#316,#332,#60,.T.);
#295=EDGE_CURVE('',#334,#315,#61,.T.);
#296=EDGE_CURVE('',#336,#314,#62,.T.);
#297=EDGE_CURVE('',#317,#330,#63,.F.);
#298=EDGE_CURVE('',#338,#313,#64,.F.);
#299=EDGE_CURVE('',#318,#328,#65,.T.);
#300=EDGE_CURVE('',#340,#312,#66,.T.);
#301=EDGE_CURVE('',#309,#326,#67,.F.);
#302=EDGE_CURVE('',#323,#311,#68,.F.);
#303=EDGE_CURVE('',#310,#324,#69,.T.);
#304=VERTEX_POINT('',#647);
#305=VERTEX_POINT('',#649);
#306=VERTEX_POINT('',#650);
#307=VERTEX_POINT('',#654);
#308=VERTEX_POINT('',#656);
#309=VERTEX_POINT('',#659);
#310=VERTEX_POINT('',#660);
#311=VERTEX_POINT('',#662);
#312=VERTEX_POINT('',#664);
#313=VERTEX_POINT('',#666);
#314=VERTEX_POINT('',#668);
#315=VERTEX_POINT('',#670);
#316=VERTEX_POINT('',#672);
#317=VERTEX_POINT('',#674);
#318=VERTEX_POINT('',#676);
#319=VERTEX_POINT('',#679);
#320=VERTEX_POINT('',#682);
#321=VERTEX_POINT('',#684);
#322=VERTEX_POINT('',#693);
#323=VERTEX_POINT('',#694);
#324=VERTEX_POINT('',#696);
#325=VERTEX_POINT('',#698);
#326=VERTEX_POINT('',#702);
#327=VERTEX_POINT('',#704);
#328=VERTEX_POINT('',#708);
#329=VERTEX_POINT('',#710);
#330=VERTEX_POINT('',#714);
#331=VERTEX_POINT('',#716);
#332=VERTEX_POINT('',#720);
#333=VERTEX_POINT('',#722);
#334=VERTEX_POINT('',#726);
#335=VERTEX_POINT('',#728);
#336=VERTEX_POINT('',#732);
#337=VERTEX_POINT('',#734);
#338=VERTEX_POINT('',#738);
#339=VERTEX_POINT('',#740);
#340=VERTEX_POINT('',#744);
#341=VERTEX_POINT('',#746);
#342=CIRCLE('',#484,0.0055);
#343=CIRCLE('',#485,0.0031);
#344=CIRCLE('',#487,0.006);
#345=CIRCLE('',#488,0.006);
#346=CIRCLE('',#490,0.004);
#347=CIRCLE('',#492,0.0031);
#348=EDGE_LOOP('',(#124));
#349=EDGE_LOOP('',(#125,#126));
#350=EDGE_LOOP('',(#127));
#351=EDGE_LOOP('',(#128));
#352=EDGE_LOOP('',(#129,#130,#131,#132,#133,#134,#135,#136,#137,#138));
#353=EDGE_LOOP('',(#139));
#354=EDGE_LOOP('',(#140,#141,#142,#143));
#355=EDGE_LOOP('',(#144,#145,#146,#147));
#356=EDGE_LOOP('',(#148,#149));
#357=EDGE_LOOP('',(#150));
#358=EDGE_LOOP('',(#151));
#359=EDGE_LOOP('',(#152));
#360=EDGE_LOOP('',(#153));
#361=EDGE_LOOP('',(#154,#155,#156,#157));
#362=EDGE_LOOP('',(#158,#159,#160,#161));
#363=EDGE_LOOP('',(#162,#163,#164,#165));
#364=EDGE_LOOP('',(#166,#167,#168,#169));
#365=EDGE_LOOP('',(#170,#171,#172,#173));
#366=EDGE_LOOP('',(#174,#175,#176,#177));
#367=EDGE_LOOP('',(#178,#179,#180,#181));
#368=EDGE_LOOP('',(#182,#183,#184,#185));
#369=EDGE_LOOP('',(#186,#187,#188,#189));
#370=EDGE_LOOP('',(#190,#191,#192,#193));
#371=EDGE_LOOP('',(#194,#195,#196,#197,#198,#199,#200,#201,#202,#203));
#372=EDGE_LOOP('',(#204,#205,#206,#207));
#373=EDGE_LOOP('',(#208,#209,#210,#211));
#374=EDGE_LOOP('',(#212,#213,#214,#215));
#375=EDGE_LOOP('',(#216,#217,#218,#219));
#376=EDGE_LOOP('',(#220,#221,#222,#223));
#377=EDGE_LOOP('',(#224,#225,#226,#227));
#378=EDGE_LOOP('',(#228,#229,#230,#231));
#379=EDGE_LOOP('',(#232,#233,#234,#235));
#380=EDGE_LOOP('',(#236,#237,#238,#239));
#381=EDGE_LOOP('',(#240,#241,#242,#243));
#382=FACE_BOUND('',#348,.T.);
#383=FACE_BOUND('',#349,.T.);
#384=FACE_BOUND('',#350,.T.);
#385=FACE_BOUND('',#351,.T.);
#386=FACE_BOUND('',#352,.T.);
#387=FACE_BOUND('',#353,.T.);
#388=FACE_BOUND('',#354,.T.);
#389=FACE_BOUND('',#355,.T.);
#390=FACE_BOUND('',#356,.T.);
#391=FACE_BOUND('',#357,.T.);
#392=FACE_BOUND('',#358,.T.);
#393=FACE_BOUND('',#359,.T.);
#394=FACE_BOUND('',#360,.T.);
#395=FACE_BOUND('',#361,.T.);
#396=FACE_BOUND('',#362,.T.);
#397=FACE_BOUND('',#363,.T.);
#398=FACE_BOUND('',#364,.T.);
#399=FACE_BOUND('',#365,.T.);
#400=FACE_BOUND('',#366,.T.);
#401=FACE_BOUND('',#367,.T.);
#402=FACE_BOUND('',#368,.T.);
#403=FACE_BOUND('',#369,.T.);
#404=FACE_BOUND('',#370,.T.);
#405=FACE_BOUND('',#371,.T.);
#406=FACE_BOUND('',#372,.T.);
#407=FACE_BOUND('',#373,.T.);
#408=FACE_BOUND('',#374,.T.);
#409=FACE_BOUND('',#375,.T.);
#410=FACE_BOUND('',#376,.T.);
#411=FACE_BOUND('',#377,.T.);
#412=FACE_BOUND('',#378,.T.);
#413=FACE_BOUND('',#379,.T.);
#414=FACE_BOUND('',#380,.T.);
#415=FACE_BOUND('',#381,.T.);
#416=PLANE('',#483);
#417=PLANE('',#489);
#418=PLANE('',#493);
#419=PLANE('',#494);
#420=PLANE('',#497);
#421=PLANE('',#498);
#422=PLANE('',#499);
#423=PLANE('',#500);
#424=PLANE('',#501);
#425=PLANE('',#502);
#426=PLANE('',#503);
#427=PLANE('',#504);
#428=PLANE('',#505);
#429=PLANE('',#506);
#430=PLANE('',#507);
#431=PLANE('',#508);
#432=PLANE('',#509);
#433=PLANE('',#510);
#434=PLANE('',#511);
#435=PLANE('',#512);
#436=PLANE('',#513);
#437=PLANE('',#514);
#438=PLANE('',#515);
#439=PLANE('',#516);
#440=PLANE('',#517);
#441=ADVANCED_FACE('',(#382,#383),#416,.F.);
#442=ADVANCED_FACE('',(#384,#385),#14,.T.);
#443=ADVANCED_FACE('',(#386,#387),#417,.T.);
#444=ADVANCED_FACE('',(#388),#15,.F.);
#445=ADVANCED_FACE('',(#389),#418,.T.);
#446=ADVANCED_FACE('',(#390),#419,.F.);
#447=ADVANCED_FACE('',(#391,#392),#12,.T.);
#448=ADVANCED_FACE('',(#393,#394),#13,.T.);
#449=ADVANCED_FACE('',(#395),#420,.F.);
#450=ADVANCED_FACE('',(#396),#421,.T.);
#451=ADVANCED_FACE('',(#397),#422,.T.);
#452=ADVANCED_FACE('',(#398),#423,.F.);
#453=ADVANCED_FACE('',(#399),#424,.F.);
#454=ADVANCED_FACE('',(#400),#425,.T.);
#455=ADVANCED_FACE('',(#401),#426,.T.);
#456=ADVANCED_FACE('',(#402),#427,.T.);
#457=ADVANCED_FACE('',(#403),#428,.F.);
#458=ADVANCED_FACE('',(#404),#429,.F.);
#459=ADVANCED_FACE('',(#405),#430,.T.);
#460=ADVANCED_FACE('',(#406),#431,.F.);
#461=ADVANCED_FACE('',(#407),#432,.F.);
#462=ADVANCED_FACE('',(#408),#433,.T.);
#463=ADVANCED_FACE('',(#409),#434,.F.);
#464=ADVANCED_FACE('',(#410),#435,.T.);
#465=ADVANCED_FACE('',(#411),#436,.T.);
#466=ADVANCED_FACE('',(#412),#437,.F.);
#467=ADVANCED_FACE('',(#413),#438,.T.);
#468=ADVANCED_FACE('',(#414),#439,.F.);
#469=ADVANCED_FACE('',(#415),#440,.T.);
#470=CLOSED_SHELL('',(#441,#442,#443,#444,#445,#446,#447,#448,#449,#450,
#451,#452,#453,#454,#455,#456,#457,#458,#459,#460,#461,#462,#463,#464,#465,
#466,#467,#468,#469));
#471=STYLED_ITEM('',(#472),#479);
#472=PRESENTATION_STYLE_ASSIGNMENT((#473));
#473=SURFACE_STYLE_USAGE(.BOTH.,#474);
#474=SURFACE_SIDE_STYLE('',(#475));
#475=SURFACE_STYLE_FILL_AREA(#476);
#476=FILL_AREA_STYLE('',(#477));
#477=FILL_AREA_STYLE_COLOUR('',#478);
#478=COLOUR_RGB('',0.615686274509804,0.811764705882353,0.929411764705882);
#479=MANIFOLD_SOLID_BREP('Part 1',#470);
#480=SHAPE_DEFINITION_REPRESENTATION(#778,#481);
#481=SHAPE_REPRESENTATION('Part 1',(#482),#773);
#482=AXIS2_PLACEMENT_3D('',#644,#518,#519);
#483=AXIS2_PLACEMENT_3D('',#645,#520,#521);
#484=AXIS2_PLACEMENT_3D('',#646,#522,#523);
#485=AXIS2_PLACEMENT_3D('',#648,#524,#525);
#486=AXIS2_PLACEMENT_3D('',#652,#527,#528);
#487=AXIS2_PLACEMENT_3D('',#653,#529,#530);
#488=AXIS2_PLACEMENT_3D('',#655,#531,#532);
#489=AXIS2_PLACEMENT_3D('',#657,#533,#534);
#490=AXIS2_PLACEMENT_3D('',#678,#545,#546);
#491=AXIS2_PLACEMENT_3D('',#680,#547,#548);
#492=AXIS2_PLACEMENT_3D('',#683,#550,#551);
#493=AXIS2_PLACEMENT_3D('',#686,#553,#554);
#494=AXIS2_PLACEMENT_3D('',#688,#556,#557);
#495=AXIS2_PLACEMENT_3D('',#689,#558,#559);
#496=AXIS2_PLACEMENT_3D('',#690,#560,#561);
#497=AXIS2_PLACEMENT_3D('',#691,#562,#563);
#498=AXIS2_PLACEMENT_3D('',#700,#568,#569);
#499=AXIS2_PLACEMENT_3D('',#706,#573,#574);
#500=AXIS2_PLACEMENT_3D('',#712,#578,#579);
#501=AXIS2_PLACEMENT_3D('',#718,#583,#584);
#502=AXIS2_PLACEMENT_3D('',#724,#588,#589);
#503=AXIS2_PLACEMENT_3D('',#730,#593,#594);
#504=AXIS2_PLACEMENT_3D('',#736,#598,#599);
#505=AXIS2_PLACEMENT_3D('',#742,#603,#604);
#506=AXIS2_PLACEMENT_3D('',#748,#608,#609);
#507=AXIS2_PLACEMENT_3D('',#751,#612,#613);
#508=AXIS2_PLACEMENT_3D('',#752,#614,#615);
#509=AXIS2_PLACEMENT_3D('',#755,#618,#619);
#510=AXIS2_PLACEMENT_3D('',#757,#621,#622);
#511=AXIS2_PLACEMENT_3D('',#759,#624,#625);
#512=AXIS2_PLACEMENT_3D('',#761,#627,#628);
#513=AXIS2_PLACEMENT_3D('',#763,#630,#631);
#514=AXIS2_PLACEMENT_3D('',#765,#633,#634);
#515=AXIS2_PLACEMENT_3D('',#767,#636,#637);
#516=AXIS2_PLACEMENT_3D('',#769,#639,#640);
#517=AXIS2_PLACEMENT_3D('',#771,#642,#643);
#518=DIRECTION('',(0.,0.,1.));
#519=DIRECTION('',(1.,0.,0.));
#520=DIRECTION('',(0.,0.,1.));
#521=DIRECTION('',(1.,0.,0.));
#522=DIRECTION('',(0.,0.,1.));
#523=DIRECTION('',(1.,0.,0.));
#524=DIRECTION('',(0.,0.,1.));
#525=DIRECTION('',(1.,0.,0.));
#526=DIRECTION('',(-1.,-1.63333664552377E-16,0.));
#527=DIRECTION('',(0.,0.,-1.));
#528=DIRECTION('',(-1.,0.,0.));
#529=DIRECTION('',(0.,0.,1.));
#530=DIRECTION('',(1.,0.,0.));
#531=DIRECTION('',(0.,0.,1.));
#532=DIRECTION('',(1.,0.,0.));
#533=DIRECTION('',(0.,0.,1.));
#534=DIRECTION('',(1.,0.,0.));
#535=DIRECTION('',(0.,-1.,0.));
#536=DIRECTION('',(-1.,4.33680868994204E-15,0.));
#537=DIRECTION('',(0.,1.,0.));
#538=DIRECTION('',(-0.707106781186548,-0.707106781186548,0.));
#539=DIRECTION('',(-0.707106781186548,0.707106781186548,0.));
#540=DIRECTION('',(1.15384274242575E-16,-1.,0.));
#541=DIRECTION('',(-1.,0.,0.));
#542=DIRECTION('',(-2.04497894724108E-16,1.,0.));
#543=DIRECTION('',(0.707106781186548,-0.707106781186548,0.));
#544=DIRECTION('',(0.707106781186548,0.707106781186548,0.));
#545=DIRECTION('',(0.,0.,1.));
#546=DIRECTION('',(1.,0.,0.));
#547=DIRECTION('',(0.,0.,-1.));
#548=DIRECTION('',(-1.,0.,0.));
#549=DIRECTION('',(0.,0.,-1.));
#550=DIRECTION('',(0.,0.,1.));
#551=DIRECTION('',(1.,0.,0.));
#552=DIRECTION('',(0.,0.,-1.));
#553=DIRECTION('',(1.63333664552377E-16,-1.,0.));
#554=DIRECTION('',(1.,1.63333664552377E-16,0.));
#555=DIRECTION('',(-1.,-1.63333664552377E-16,0.));
#556=DIRECTION('',(0.,0.,1.));
#557=DIRECTION('',(1.,0.,0.));
#558=DIRECTION('',(0.,0.,1.));
#559=DIRECTION('',(1.,0.,0.));
#560=DIRECTION('',(0.,0.,1.));
#561=DIRECTION('',(1.,0.,0.));
#562=DIRECTION('',(-4.33680868994204E-15,-1.,0.));
#563=DIRECTION('',(1.,-4.33680868994204E-15,0.));
#564=DIRECTION('',(0.,0.,1.));
#565=DIRECTION('',(1.,-4.33680868994204E-15,0.));
#566=DIRECTION('',(0.,0.,1.));
#567=DIRECTION('',(1.,-4.33680868994204E-15,0.));
#568=DIRECTION('',(-1.,0.,0.));
#569=DIRECTION('',(0.,0.,1.));
#570=DIRECTION('',(0.,1.,0.));
#571=DIRECTION('',(0.,0.,1.));
#572=DIRECTION('',(0.,-1.,0.));
#573=DIRECTION('',(0.707106781186548,-0.707106781186548,0.));
#574=DIRECTION('',(0.707106781186548,0.707106781186548,0.));
#575=DIRECTION('',(-0.707106781186548,-0.707106781186548,0.));
#576=DIRECTION('',(0.,0.,1.));
#577=DIRECTION('',(0.707106781186548,0.707106781186548,0.));
#578=DIRECTION('',(0.707106781186548,0.707106781186548,0.));
#579=DIRECTION('',(-0.707106781186548,0.707106781186548,0.));
#580=DIRECTION('',(-0.707106781186548,0.707106781186548,0.));
#581=DIRECTION('',(0.,0.,1.));
#582=DIRECTION('',(-0.707106781186548,0.707106781186548,0.));
#583=DIRECTION('',(-1.,-2.04497894724108E-16,0.));
#584=DIRECTION('',(2.04497894724108E-16,-1.,0.));
#585=DIRECTION('',(2.04497894724108E-16,-1.,0.));
#586=DIRECTION('',(0.,0.,1.));
#587=DIRECTION('',(2.04497894724108E-16,-1.,0.));
#588=DIRECTION('',(0.,1.,0.));
#589=DIRECTION('',(0.,0.,1.));
#590=DIRECTION('',(1.,0.,0.));
#591=DIRECTION('',(0.,0.,1.));
#592=DIRECTION('',(-1.,0.,0.));
#593=DIRECTION('',(-1.,-1.15384274242575E-16,0.));
#594=DIRECTION('',(1.15384274242575E-16,-1.,0.));
#595=DIRECTION('',(-1.15384274242575E-16,1.,0.));
#596=DIRECTION('',(0.,0.,1.));
#597=DIRECTION('',(1.15384274242575E-16,-1.,0.));
#598=DIRECTION('',(0.707106781186548,0.707106781186548,0.));
#599=DIRECTION('',(-0.707106781186548,0.707106781186548,0.));
#600=DIRECTION('',(0.707106781186548,-0.707106781186548,0.));
#601=DIRECTION('',(0.,0.,1.));
#602=DIRECTION('',(-0.707106781186548,0.707106781186548,0.));
#603=DIRECTION('',(0.707106781186548,-0.707106781186548,0.));
#604=DIRECTION('',(0.707106781186548,0.707106781186548,0.));
#605=DIRECTION('',(0.707106781186548,0.707106781186548,0.));
#606=DIRECTION('',(0.,0.,1.));
#607=DIRECTION('',(0.707106781186548,0.707106781186548,0.));
#608=DIRECTION('',(-1.,0.,0.));
#609=DIRECTION('',(0.,0.,1.));
#610=DIRECTION('',(0.,-1.,0.));
#611=DIRECTION('',(0.,-1.,0.));
#612=DIRECTION('',(0.,0.,1.));
#613=DIRECTION('',(1.,0.,0.));
#614=DIRECTION('',(0.,-0.707106781186545,-0.707106781186551));
#615=DIRECTION('',(-1.,0.,0.));
#616=DIRECTION('',(0.577350269189628,0.577350269189627,-0.577350269189622));
#617=DIRECTION('',(0.577350269189627,-0.577350269189628,0.577350269189623));
#618=DIRECTION('',(0.707106781186545,8.15890027592132E-17,-0.70710678118655));
#619=DIRECTION('',(1.15384274242575E-16,-1.,0.));
#620=DIRECTION('',(0.357406744336593,-0.862856209461018,0.357406744336591));
#621=DIRECTION('',(0.707106781186544,1.44601848097789E-16,0.707106781186551));
#622=DIRECTION('',(-2.04497894724108E-16,1.,0.));
#623=DIRECTION('',(-0.357406744336594,0.862856209461018,0.35740674433659));
#624=DIRECTION('',(-0.5,-0.5,-0.70710678118655));
#625=DIRECTION('',(-0.707106781186548,0.707106781186548,0.));
#626=DIRECTION('',(-3.20493781063927E-17,0.816496580927728,-0.577350269189623));
#627=DIRECTION('',(-0.5,-0.5,0.70710678118655));
#628=DIRECTION('',(0.707106781186548,-0.707106781186548,0.));
#629=DIRECTION('',(3.20493781063927E-17,-0.816496580927728,-0.577350269189623));
#630=DIRECTION('',(-0.5,0.5,0.70710678118655));
#631=DIRECTION('',(-0.707106781186548,-0.707106781186548,0.));
#632=DIRECTION('',(-0.357406744336593,-0.862856209461018,0.357406744336591));
#633=DIRECTION('',(-0.5,0.5,-0.70710678118655));
#634=DIRECTION('',(0.707106781186548,0.707106781186548,0.));
#635=DIRECTION('',(0.357406744336594,0.862856209461018,0.357406744336591));
#636=DIRECTION('',(0.707106781186545,0.,0.70710678118655));
#637=DIRECTION('',(0.,1.,0.));
#638=DIRECTION('',(0.577350269189628,0.577350269189625,-0.577350269189624));
#639=DIRECTION('',(0.707106781186545,0.,-0.707106781186551));
#640=DIRECTION('',(0.,-1.,0.));
#641=DIRECTION('',(-0.577350269189627,0.577350269189628,-0.577350269189622));
#642=DIRECTION('',(3.06658683336675E-15,0.707106781186545,0.70710678118655));
#643=DIRECTION('',(-1.,4.33680868994204E-15,0.));
#644=CARTESIAN_POINT('',(0.,0.,0.));
#645=CARTESIAN_POINT('',(0.,0.,0.));
#646=CARTESIAN_POINT('',(0.,3.67394039744206E-19,0.));
#647=CARTESIAN_POINT('',(0.0055,3.67394039744206E-19,0.));
#648=CARTESIAN_POINT('',(-2.54545383794516E-19,4.33680868994202E-19,0.));
#649=CARTESIAN_POINT('',(-0.00265518360947035,0.0016,0.));
#650=CARTESIAN_POINT('',(0.00265518360947035,0.0016,0.));
#651=CARTESIAN_POINT('',(-0.00132759180473518,0.0016,0.));
#652=CARTESIAN_POINT('',(0.,3.67394039744206E-19,0.015));
#653=CARTESIAN_POINT('',(0.,3.67394039744206E-19,0.0005));
#654=CARTESIAN_POINT('',(0.006,3.67394039744206E-19,0.0005));
#655=CARTESIAN_POINT('',(0.,3.67394039744206E-19,0.013));
#656=CARTESIAN_POINT('',(0.006,3.67394039744206E-19,0.013));
#657=CARTESIAN_POINT('',(0.,0.,0.015));
#658=CARTESIAN_POINT('',(0.0022,0.,0.015));
#659=CARTESIAN_POINT('',(0.0022,0.00248284271247462,0.015));
#660=CARTESIAN_POINT('',(0.0022,-0.0021,0.015));
#661=CARTESIAN_POINT('',(0.0019,-0.0021,0.015));
#662=CARTESIAN_POINT('',(0.0018,-0.0021,0.015));
#663=CARTESIAN_POINT('',(0.0018,0.00175857864376269,0.015));
#664=CARTESIAN_POINT('',(0.0018,0.00151715728752538,0.015));
#665=CARTESIAN_POINT('',(7.07106781186541E-5,-0.000212132034355965,0.015));
#666=CARTESIAN_POINT('',(6.66908391870485E-20,-0.000282842712474619,0.015));
#667=CARTESIAN_POINT('',(-0.00014142135623731,-0.00014142135623731,0.015));
#668=CARTESIAN_POINT('',(-0.0018,0.00151715728752538,0.015));
#669=CARTESIAN_POINT('',(-0.0018,-2.07691693636636E-19,0.015));
#670=CARTESIAN_POINT('',(-0.0018,-0.0021,0.015));
#671=CARTESIAN_POINT('',(0.,-0.0021,0.015));
#672=CARTESIAN_POINT('',(-0.0022,-0.0021,0.015));
#673=CARTESIAN_POINT('',(-0.0022,0.00224142135623731,0.015));
#674=CARTESIAN_POINT('',(-0.0022,0.00248284271247462,0.015));
#675=CARTESIAN_POINT('',(7.07106781186549E-5,0.000212132034355964,0.015));
#676=CARTESIAN_POINT('',(3.94607340162158E-20,0.000282842712474619,0.015));
#677=CARTESIAN_POINT('',(-0.000141421356237309,0.000141421356237309,0.015));
#678=CARTESIAN_POINT('',(0.,3.67394039744206E-19,0.015));
#679=CARTESIAN_POINT('',(0.004,3.67394039744206E-19,0.015));
#680=CARTESIAN_POINT('',(-2.54545383794516E-19,4.33680868994202E-19,0.0102));
#681=CARTESIAN_POINT('',(-0.00265518360947035,0.0016,0.0102));
#682=CARTESIAN_POINT('',(-0.00265518360947035,0.0016,0.0102));
#683=CARTESIAN_POINT('',(-2.54545383794516E-19,4.33680868994202E-19,0.0102));
#684=CARTESIAN_POINT('',(0.00265518360947035,0.0016,0.0102));
#685=CARTESIAN_POINT('',(0.00265518360947035,0.0016,0.0102));
#686=CARTESIAN_POINT('',(-0.00132759180473518,0.0016,0.0102));
#687=CARTESIAN_POINT('',(-0.00132759180473518,0.0016,0.0102));
#688=CARTESIAN_POINT('',(0.,0.,0.0102));
#689=CARTESIAN_POINT('',(0.,3.67394039744206E-19,0.013));
#690=CARTESIAN_POINT('',(0.,3.67394039744206E-19,0.0005));
#691=CARTESIAN_POINT('',(0.00195,-0.002,0.0145));
#692=CARTESIAN_POINT('',(0.0019,-0.002,0.0145));
#693=CARTESIAN_POINT('',(0.0019,-0.002,0.0145));
#694=CARTESIAN_POINT('',(0.0019,-0.002,0.0149));
#695=CARTESIAN_POINT('',(0.0021,-0.002,0.0149));
#696=CARTESIAN_POINT('',(0.0021,-0.002,0.0149));
#697=CARTESIAN_POINT('',(0.0021,-0.002,0.0145));
#698=CARTESIAN_POINT('',(0.0021,-0.002,0.0145));
#699=CARTESIAN_POINT('',(0.00195,-0.002,0.0145));
#700=CARTESIAN_POINT('',(0.0021,0.000120710678118655,0.0145));
#701=CARTESIAN_POINT('',(0.0021,0.000120710678118655,0.0149));
#702=CARTESIAN_POINT('',(0.0021,0.00224142135623731,0.0149));
#703=CARTESIAN_POINT('',(0.0021,0.00224142135623731,0.0145));
#704=CARTESIAN_POINT('',(0.0021,0.00224142135623731,0.0145));
#705=CARTESIAN_POINT('',(0.0021,0.000120710678118655,0.0145));
#706=CARTESIAN_POINT('',(0.00105,0.00119142135623731,0.0145));
#707=CARTESIAN_POINT('',(0.00105,0.00119142135623731,0.0149));
#708=CARTESIAN_POINT('',(-6.50521303491303E-19,0.000141421356237309,0.0149));
#709=CARTESIAN_POINT('',(-6.50521303491303E-19,0.000141421356237309,0.0145));
#710=CARTESIAN_POINT('',(-6.50521303491303E-19,0.000141421356237309,0.0145));
#711=CARTESIAN_POINT('',(0.00105,0.00119142135623731,0.0145));
#712=CARTESIAN_POINT('',(-0.00105,0.00119142135623731,0.0145));
#713=CARTESIAN_POINT('',(-0.0021,0.00224142135623731,0.0149));
#714=CARTESIAN_POINT('',(-0.0021,0.00224142135623731,0.0149));
#715=CARTESIAN_POINT('',(-0.0021,0.00224142135623731,0.0145));
#716=CARTESIAN_POINT('',(-0.0021,0.00224142135623731,0.0145));
#717=CARTESIAN_POINT('',(-0.00105,0.00119142135623731,0.0145));
#718=CARTESIAN_POINT('',(-0.0021,0.000120710678118655,0.0145));
#719=CARTESIAN_POINT('',(-0.0021,-0.002,0.0149));
#720=CARTESIAN_POINT('',(-0.0021,-0.002,0.0149));
#721=CARTESIAN_POINT('',(-0.0021,-0.002,0.0145));
#722=CARTESIAN_POINT('',(-0.0021,-0.002,0.0145));
#723=CARTESIAN_POINT('',(-0.0021,0.000120710678118655,0.0145));
#724=CARTESIAN_POINT('',(-0.00195,-0.002,0.0145));
#725=CARTESIAN_POINT('',(-0.00195,-0.002,0.0149));
#726=CARTESIAN_POINT('',(-0.0019,-0.002,0.0149));
#727=CARTESIAN_POINT('',(-0.0019,-0.002,0.0145));
#728=CARTESIAN_POINT('',(-0.0019,-0.002,0.0145));
#729=CARTESIAN_POINT('',(-0.00195,-0.002,0.0145));
#730=CARTESIAN_POINT('',(-0.0019,-0.000120710678118655,0.0145));
#731=CARTESIAN_POINT('',(-0.0019,-0.000120710678118655,0.0149));
#732=CARTESIAN_POINT('',(-0.0019,0.00175857864376269,0.0149));
#733=CARTESIAN_POINT('',(-0.0019,0.00175857864376269,0.0145));
#734=CARTESIAN_POINT('',(-0.0019,0.00175857864376269,0.0145));
#735=CARTESIAN_POINT('',(-0.0019,-0.000120710678118655,0.0145));
#736=CARTESIAN_POINT('',(-0.00095,0.00080857864376269,0.0145));
#737=CARTESIAN_POINT('',(-0.00095,0.00080857864376269,0.0149));
#738=CARTESIAN_POINT('',(-6.50521303491303E-19,-0.00014142135623731,0.0149));
#739=CARTESIAN_POINT('',(-6.50521303491303E-19,-0.00014142135623731,0.0145));
#740=CARTESIAN_POINT('',(-6.50521303491303E-19,-0.00014142135623731,0.0145));
#741=CARTESIAN_POINT('',(-0.00095,0.00080857864376269,0.0145));
#742=CARTESIAN_POINT('',(0.00095,0.00080857864376269,0.0145));
#743=CARTESIAN_POINT('',(0.0019,0.00175857864376269,0.0149));
#744=CARTESIAN_POINT('',(0.0019,0.00175857864376269,0.0149));
#745=CARTESIAN_POINT('',(0.0019,0.00175857864376269,0.0145));
#746=CARTESIAN_POINT('',(0.0019,0.00175857864376269,0.0145));
#747=CARTESIAN_POINT('',(0.00095,0.00080857864376269,0.0145));
#748=CARTESIAN_POINT('',(0.0019,-0.000120710678118655,0.0145));
#749=CARTESIAN_POINT('',(0.0019,-0.002,0.0149));
#750=CARTESIAN_POINT('',(0.0019,-0.000120710678118655,0.0145));
#751=CARTESIAN_POINT('',(0.,0.,0.0145));
#752=CARTESIAN_POINT('',(0.,-0.0021,0.015));
#753=CARTESIAN_POINT('',(-0.00139309644062711,-0.00129309644062711,0.0141930964406271));
#754=CARTESIAN_POINT('',(-0.0012,-0.0027,0.0156));
#755=CARTESIAN_POINT('',(-0.0018,-2.07691693636636E-19,0.015));
#756=CARTESIAN_POINT('',(-0.00107664374853837,-0.000229179185180653,0.0157233562514617));
#757=CARTESIAN_POINT('',(-0.0021,0.000120710678118655,0.0149));
#758=CARTESIAN_POINT('',(-0.00164206327997107,0.00113586431603482,0.0144420632799711));
#759=CARTESIAN_POINT('',(-0.00014142135623731,-0.00014142135623731,0.015));
#760=CARTESIAN_POINT('',(-2.71050543121376E-20,-0.000188561808316412,0.0149333333333333));
#761=CARTESIAN_POINT('',(-0.00105,0.00119142135623731,0.0149));
#762=CARTESIAN_POINT('',(0.,0.000841421356237313,0.0153949747468306));
#763=CARTESIAN_POINT('',(0.00095,0.00080857864376269,0.0149));
#764=CARTESIAN_POINT('',(0.00132044478460212,0.000359408582605066,0.0154795552153979));
#765=CARTESIAN_POINT('',(-0.000141421356237309,0.000141421356237309,0.015));
#766=CARTESIAN_POINT('',(0.00143431457505076,0.000634314575050759,0.0142343145750508));
#767=CARTESIAN_POINT('',(0.0019,-0.000120710678118655,0.0149));
#768=CARTESIAN_POINT('',(0.00191666666666667,-0.00198333333333333,0.0148833333333333));
#769=CARTESIAN_POINT('',(0.0022,0.,0.015));
#770=CARTESIAN_POINT('',(0.00205,-0.00195,0.01485));
#771=CARTESIAN_POINT('',(0.00195,-0.002,0.0149));
#772=MECHANICAL_DESIGN_GEOMETRIC_PRESENTATION_REPRESENTATION('',(#471),
#773);
#773=(
GEOMETRIC_REPRESENTATION_CONTEXT(3)
GLOBAL_UNCERTAINTY_ASSIGNED_CONTEXT((#774))
GLOBAL_UNIT_ASSIGNED_CONTEXT((#777,#776,#775))
REPRESENTATION_CONTEXT('Part 1','TOP_LEVEL_ASSEMBLY_PART')
);
#774=UNCERTAINTY_MEASURE_WITH_UNIT(LENGTH_MEASURE(1.E-8),#777,
'DISTANCE_ACCURACY_VALUE','Maximum Tolerance applied to model');
#775=(
NAMED_UNIT(*)
SI_UNIT($,.STERADIAN.)
SOLID_ANGLE_UNIT()
);
#776=(
NAMED_UNIT(*)
PLANE_ANGLE_UNIT()
SI_UNIT($,.RADIAN.)
);
#777=(
LENGTH_UNIT()
NAMED_UNIT(*)
SI_UNIT($,.METRE.)
);
#778=PRODUCT_DEFINITION_SHAPE('','',#779);
#779=PRODUCT_DEFINITION('','',#781,#780);
#780=PRODUCT_DEFINITION_CONTEXT('',#787,'design');
#781=PRODUCT_DEFINITION_FORMATION_WITH_SPECIFIED_SOURCE('','',#783,
 .NOT_KNOWN.);
#782=PRODUCT_RELATED_PRODUCT_CATEGORY('','',(#783));
#783=PRODUCT('Part 1','Part 1','Part 1',(#785));
#784=PRODUCT_CATEGORY('','');
#785=PRODUCT_CONTEXT('',#787,'mechanical');
#786=APPLICATION_PROTOCOL_DEFINITION('international standard',
'ap242_managed_model_based_3d_engineering',2020,#787);
#787=APPLICATION_CONTEXT('managed model based 3d engineering');
ENDSEC;
END-ISO-10303-21;
